<?xml version="1.0" encoding="UTF-8"?><svg xmlns="http://www.w3.org/2000/svg" xmlns:xlink="http://www.w3.org/1999/xlink" height="92.0" preserveAspectRatio="xMidYMid meet" version="1.0" viewBox="5.5 4.0 89.0 92.0" width="89.0" zoomAndPan="magnify"><g id="change1_1"><path d="M5.7,11.5L5.5,5c0-0.3,0.1-0.5,0.3-0.7C6,4.1,6.2,4,6.5,4h17c0.3,0,0.5,0.1,0.7,0.3l26,25.8L76,4.3 C76.2,4.1,76.4,4,76.7,4h12.7c0.3,0,0.7,0.2,0.8,0.5l4.1,6.4c0.2,0.3,0.2,0.6,0.1,0.9c0,0.1-0.1,0.3-0.2,0.4L50.8,54.9 c-0.2,0.2-0.4,0.3-0.7,0.3s-0.5-0.1-0.7-0.3L6,12.2C5.8,12,5.7,11.8,5.7,11.5C5.7,11.5,5.7,11.5,5.7,11.5z M5.7,52.4 c0,0.3,0.1,0.5,0.3,0.7l43.4,42.6c0.2,0.2,0.4,0.3,0.7,0.3s0.5-0.1,0.7-0.3l43.4-42.6c0.1-0.1,0.2-0.2,0.2-0.4 c0.1-0.3,0.1-0.7-0.1-0.9l-4.1-6.4c-0.2-0.3-0.5-0.5-0.8-0.5H76.7c-0.3,0-0.5,0.1-0.7,0.3L50.2,70.9l-26-25.8 c-0.2-0.2-0.4-0.3-0.7-0.3h-17c-0.3,0-0.5,0.1-0.7,0.3c-0.2,0.2-0.3,0.5-0.3,0.7L5.7,52.4C5.7,52.3,5.7,52.3,5.7,52.4z" fill="#fff"/></g></svg>