<?xml version="1.0" encoding="UTF-8"?><svg xmlns="http://www.w3.org/2000/svg" xmlns:xlink="http://www.w3.org/1999/xlink" height="227.8" preserveAspectRatio="xMidYMid meet" version="1.1" viewBox="87.6 98.7 250.0 227.8" width="250.0" zoomAndPan="magnify">
 <g id="surface1">
  <g id="change1_1"><path d="m337.52 270.67l-12.34-9.6c-12.47-7.29-33.14-12.07-56.55-12.07s-44.08 4.78-56.54 12.07l-12.41 9.83v6.23 0.08c0 15.58 30.87 28.2 68.95 28.2s68.96-12.62 68.96-28.2l-0.01-0.08h0.01l-0.07-6.46" fill="#f9b42a"/></g>
  <g id="change2_1"><path d="m337.53 271.21c0 15.58-30.86 28.21-68.92 28.21-38.07 0-68.93-12.63-68.93-28.21 0-15.57 30.86-28.2 68.93-28.2 38.06 0 68.92 12.63 68.92 28.2" fill="#f58611"/></g>
  <g id="change1_2"><path d="m268.61 247.91c-31.42 0-56.97 10.45-56.97 23.3 0 12.86 25.55 23.31 56.97 23.31 31.41 0 56.96-10.45 56.96-23.31 0-12.85-25.55-23.3-56.96-23.3m0 47.85c-33.08 0-59.99-11.01-59.99-24.55 0-13.53 26.91-24.54 59.99-24.54 33.07 0 59.98 11.01 59.98 24.54 0 13.54-26.91 24.55-59.98 24.55" fill="#f9b42a"/></g>
  <g id="change1_3"><path d="m279.61 277.88c-0.25 1.11-1.8 1.91-4.56 2.39-0.12-2.16-0.27-4.32-0.43-6.45 3.3 0.93 5.33 2.56 4.99 4.06m-20.07-12.9c-0.29-0.19-0.73-0.48 0.26-1.12 0.56-0.36 1.38-0.71 2.35-1.02 0.06 1.13 0.14 2.25 0.22 3.37-1.12-0.35-2.08-0.75-2.83-1.23m20.29 4.54c-1.85-0.44-3.74-0.79-5.63-1.11-0.16-2.21-0.32-4.45-0.44-6.7 1.09 0.2 1.81 0.55 2.28 1.1 1.06 1.24 4.39 1.9 7.43 1.46 3.04-0.43 4.65-1.79 3.58-3.04-2.13-2.49-7.03-4.1-13.48-4.43-0.01-0.74-0.02-1.47-0.02-2.2 0-1.32-2.61-2.39-5.83-2.39s-5.83 1.07-5.83 2.39c0 0.95 0.01 1.92 0.04 2.88-4.96 0.79-9.43 2.16-12.01 3.84-3.11 2.02-3.21 4.28-0.26 6.2 3.4 2.21 8.29 3.35 13.12 4.18 0.22 2.75 0.43 5.53 0.59 8.32-0.73-0.13-1.42-0.29-2.05-0.47-2.47-0.71-3.74-1.62-3.76-2.69-0.02-1.31-2.63-2.37-5.83-2.37h-0.04c-3.22 0.01-5.81 1.08-5.79 2.4 0.04 2.64 3.15 4.97 8.74 6.57 2.65 0.76 5.72 1.3 8.93 1.62 0.03 0.92 0.04 1.84 0.04 2.76 0 1.32 2.62 2.38 5.84 2.38s5.83-1.06 5.83-2.38c0-0.88-0.01-1.75-0.03-2.63 1.1-0.09 2.17-0.21 3.2-0.36 7.43-1.09 12.08-3.47 12.78-6.53 0.77-3.44-3.8-6.97-11.4-8.8" fill="#f9b42a"/></g>
  <g id="change3_1"><path d="m303.58 293.82c0.51-1.02 0.98-2.05 1.43-3.11 12.33-3.87 20.91-9.65 23.05-16.25 2.42-1.67 4.43-3.46 5.97-5.34 0.12 0.66 0.18 1.33 0.18 2.01 0 9.56-12.23 17.95-30.63 22.69m2.17-4.94c0.68-1.77 1.27-3.59 1.78-5.43 6.2-1.74 11.67-3.88 16.19-6.33-2.97 4.64-9.35 8.72-17.97 11.76" fill="#f7980f"/></g>
  <g id="change4_1"><path d="m305.01 290.71c0.26-0.6 0.5-1.22 0.74-1.83 8.62-3.04 15-7.12 17.97-11.76 1.57-0.85 3.01-1.74 4.34-2.66-2.14 6.6-10.72 12.38-23.05 16.25" fill="#fac03d"/></g>
  <g id="change1_4"><path d="m337.52 253.61l-12.34-9.59c-12.47-7.3-33.14-12.07-56.55-12.07s-44.08 4.77-56.54 12.07l-12.41 9.82v6.23 0.08c0 15.58 30.87 28.21 68.95 28.21s68.96-12.63 68.96-28.21l-0.01-0.08h0.01l-0.07-6.46" fill="#f9b42a"/></g>
  <g id="change2_2"><path d="m337.53 254.16c0 15.57-30.86 28.2-68.92 28.2-38.07 0-68.93-12.63-68.93-28.2 0-15.58 30.86-28.21 68.93-28.21 38.06 0 68.92 12.63 68.92 28.21" fill="#f58611"/></g>
  <g id="change1_5"><path d="m268.61 230.85c-31.42 0-56.97 10.45-56.97 23.31 0 12.85 25.55 23.31 56.97 23.31 31.41 0 56.96-10.46 56.96-23.31 0-12.86-25.55-23.31-56.96-23.31m0 47.85c-33.08 0-59.99-11.01-59.99-24.54 0-13.54 26.91-24.54 59.99-24.54 33.07 0 59.98 11 59.98 24.54 0 13.53-26.91 24.54-59.98 24.54" fill="#f9b42a"/></g>
  <g id="change1_6"><path d="m279.61 260.82c-0.25 1.11-1.8 1.91-4.56 2.39-0.12-2.16-0.27-4.31-0.43-6.44 3.3 0.93 5.33 2.55 4.99 4.05m-20.07-12.9c-0.29-0.19-0.73-0.47 0.26-1.12 0.56-0.36 1.38-0.71 2.35-1.01 0.06 1.12 0.14 2.24 0.22 3.36-1.12-0.35-2.08-0.74-2.83-1.23m20.29 4.55c-1.85-0.45-3.74-0.8-5.63-1.11-0.16-2.22-0.32-4.46-0.44-6.7 1.09 0.2 1.81 0.54 2.28 1.09 1.06 1.25 4.39 1.9 7.43 1.47 3.04-0.44 4.65-1.8 3.58-3.04-2.13-2.5-7.03-4.11-13.48-4.44-0.01-0.74-0.02-1.47-0.02-2.2 0-1.32-2.61-2.39-5.83-2.39s-5.83 1.07-5.83 2.39c0 0.96 0.01 1.92 0.04 2.88-4.96 0.79-9.43 2.16-12.01 3.84-3.11 2.02-3.21 4.28-0.26 6.2 3.4 2.22 8.29 3.35 13.12 4.19 0.22 2.74 0.43 5.52 0.59 8.31-0.73-0.13-1.42-0.29-2.05-0.47-2.47-0.71-3.74-1.61-3.76-2.69-0.02-1.31-2.63-2.37-5.83-2.37h-0.04c-3.22 0.01-5.81 1.09-5.79 2.4 0.04 2.64 3.15 4.97 8.74 6.57 2.65 0.76 5.72 1.3 8.93 1.62 0.03 0.92 0.04 1.84 0.04 2.76 0 1.32 2.62 2.38 5.84 2.38s5.83-1.06 5.83-2.38c0-0.87-0.01-1.75-0.03-2.63 1.1-0.09 2.17-0.2 3.2-0.36 7.43-1.09 12.08-3.47 12.78-6.53 0.77-3.44-3.8-6.97-11.4-8.79" fill="#f9b42a"/></g>
  <g id="change3_2"><path d="m309.17 275.16c0.12-1.01 0.22-2.03 0.29-3.05 9.93-3.79 16.73-8.93 18.6-14.7 2.42-1.68 4.43-3.47 5.97-5.35 0.12 0.66 0.18 1.33 0.18 2.01 0 8.56-9.79 16.18-25.04 21.09m0.39-4.82c0.04-0.8 0.05-1.62 0.05-2.43 0-0.71-0.01-1.42-0.04-2.12 5.37-1.62 10.13-3.55 14.15-5.73-2.51 3.92-7.47 7.45-14.16 10.28" fill="#f7980f"/></g>
  <g id="change4_2"><path d="m309.46 272.11c0.04-0.59 0.08-1.18 0.1-1.77 6.69-2.83 11.65-6.36 14.16-10.28 1.57-0.85 3.01-1.74 4.34-2.65-1.87 5.77-8.67 10.91-18.6 14.7" fill="#fac03d"/></g>
  <g id="change1_7"><path d="m337.52 236.55l-12.34-9.59c-12.47-7.3-33.14-12.07-56.55-12.07s-44.08 4.77-56.54 12.07l-12.41 9.83v6.22 0.08c0 15.58 30.87 28.21 68.95 28.21s68.96-12.63 68.96-28.21l-0.01-0.08h0.01l-0.07-6.46" fill="#f9b42a"/></g>
  <g id="change2_3"><path d="m337.53 237.1c0 15.58-30.86 28.2-68.92 28.2-38.07 0-68.93-12.62-68.93-28.2s30.86-28.2 68.93-28.2c38.06 0 68.92 12.62 68.92 28.2" fill="#f58611"/></g>
  <g id="change1_8"><path d="m268.61 213.79c-31.42 0-56.97 10.46-56.97 23.31s25.55 23.31 56.97 23.31c31.41 0 56.96-10.46 56.96-23.31s-25.55-23.31-56.96-23.31m0 47.85c-33.08 0-59.99-11.01-59.99-24.54s26.91-24.54 59.99-24.54c33.07 0 59.98 11.01 59.98 24.54s-26.91 24.54-59.98 24.54" fill="#f9b42a"/></g>
  <g id="change1_9"><path d="m279.61 243.76c-0.25 1.12-1.8 1.92-4.56 2.39-0.12-2.16-0.27-4.31-0.43-6.44 3.3 0.93 5.33 2.55 4.99 4.05m-20.07-12.9c-0.29-0.19-0.73-0.47 0.26-1.12 0.56-0.36 1.38-0.7 2.35-1.01 0.06 1.12 0.14 2.24 0.22 3.36-1.12-0.34-2.08-0.74-2.83-1.23m20.29 4.55c-1.85-0.44-3.74-0.79-5.63-1.11-0.16-2.22-0.32-4.46-0.44-6.7 1.09 0.2 1.81 0.54 2.28 1.1 1.06 1.24 4.39 1.89 7.43 1.46s4.65-1.8 3.58-3.04c-2.13-2.5-7.03-4.1-13.48-4.44-0.01-0.73-0.02-1.47-0.02-2.2 0-1.32-2.61-2.39-5.83-2.39s-5.83 1.07-5.83 2.39c0 0.96 0.01 1.92 0.04 2.88-4.96 0.8-9.43 2.16-12.01 3.84-3.11 2.02-3.21 4.28-0.26 6.2 3.4 2.22 8.29 3.35 13.12 4.19 0.22 2.74 0.43 5.52 0.59 8.32-0.73-0.14-1.42-0.3-2.05-0.48-2.47-0.7-3.74-1.61-3.76-2.69-0.02-1.31-2.63-2.37-5.83-2.37h-0.04c-3.22 0.01-5.81 1.09-5.79 2.4 0.04 2.64 3.15 4.98 8.74 6.58 2.65 0.75 5.72 1.29 8.93 1.61 0.03 0.93 0.04 1.84 0.04 2.76 0 1.32 2.62 2.39 5.84 2.39s5.83-1.07 5.83-2.39c0-0.87-0.01-1.75-0.03-2.62 1.1-0.09 2.17-0.21 3.2-0.37 7.43-1.09 12.08-3.47 12.78-6.53 0.77-3.43-3.8-6.97-11.4-8.79" fill="#f9b42a"/></g>
  <g id="change3_3"><path d="m308.81 258.21c-0.15-0.91-0.32-1.82-0.52-2.72 10.57-3.83 17.83-9.15 19.77-15.14 2.42-1.68 4.43-3.47 5.97-5.35 0.12 0.66 0.18 1.34 0.18 2.02 0 8.62-9.94 16.29-25.4 21.19m-0.87-4.26c-0.37-1.49-0.78-2.95-1.26-4.39 6.55-1.77 12.32-3.99 17.04-6.56-2.71 4.24-8.27 8.01-15.78 10.95" fill="#f7980f"/></g>
  <g id="change4_3"><path d="m308.29 255.49c-0.11-0.52-0.23-1.03-0.35-1.54 7.51-2.94 13.07-6.71 15.78-10.95 1.57-0.84 3.01-1.73 4.34-2.65-1.94 5.99-9.2 11.31-19.77 15.14" fill="#fac03d"/></g>
  <g id="change1_10"><path d="m337.52 219.5l-12.34-9.6c-12.47-7.29-33.14-12.07-56.55-12.07s-44.08 4.78-56.54 12.07l-12.41 9.83v6.22 0.09c0 15.57 30.87 28.2 68.95 28.2s68.96-12.63 68.96-28.2l-0.01-0.09h0.01l-0.07-6.45" fill="#f9b42a"/></g>
  <g id="change2_4"><path d="m337.53 220.04c0 15.58-30.86 28.21-68.92 28.21-38.07 0-68.93-12.63-68.93-28.21s30.86-28.2 68.93-28.2c38.06 0 68.92 12.62 68.92 28.2" fill="#f58611"/></g>
  <g id="change1_11"><path d="m268.61 196.73c-31.42 0-56.97 10.46-56.97 23.31s25.55 23.31 56.97 23.31c31.41 0 56.96-10.46 56.96-23.31s-25.55-23.31-56.96-23.31m0 47.86c-33.08 0-59.99-11.01-59.99-24.55 0-13.53 26.91-24.54 59.99-24.54 33.07 0 59.98 11.01 59.98 24.54 0 13.54-26.91 24.55-59.98 24.55" fill="#f9b42a"/></g>
  <g id="change1_12"><path d="m279.61 226.7c-0.25 1.12-1.8 1.92-4.56 2.39-0.12-2.16-0.27-4.31-0.43-6.44 3.3 0.93 5.33 2.55 4.99 4.05m-20.07-12.9c-0.29-0.19-0.73-0.47 0.26-1.12 0.56-0.36 1.38-0.7 2.35-1.01 0.06 1.12 0.14 2.24 0.22 3.37-1.12-0.35-2.08-0.75-2.83-1.24m20.29 4.55c-1.85-0.44-3.74-0.79-5.63-1.11-0.16-2.22-0.32-4.45-0.44-6.7 1.09 0.2 1.81 0.55 2.28 1.1 1.06 1.24 4.39 1.9 7.43 1.46 3.04-0.43 4.65-1.8 3.58-3.04-2.13-2.49-7.03-4.1-13.48-4.44-0.01-0.73-0.02-1.46-0.02-2.2 0-1.31-2.61-2.38-5.83-2.38s-5.83 1.07-5.83 2.38c0 0.96 0.01 1.92 0.04 2.89-4.96 0.79-9.43 2.15-12.01 3.83-3.11 2.03-3.21 4.29-0.26 6.2 3.4 2.22 8.29 3.36 13.12 4.19 0.22 2.74 0.43 5.53 0.59 8.32-0.73-0.14-1.42-0.3-2.05-0.47-2.47-0.71-3.74-1.62-3.76-2.69-0.02-1.32-2.63-2.37-5.83-2.37h-0.04c-3.22 0-5.81 1.08-5.79 2.4 0.04 2.64 3.15 4.97 8.74 6.57 2.65 0.75 5.72 1.3 8.93 1.62 0.03 0.92 0.04 1.84 0.04 2.75 0 1.32 2.62 2.39 5.84 2.39s5.83-1.07 5.83-2.39c0-0.87-0.01-1.75-0.03-2.62 1.1-0.09 2.17-0.21 3.2-0.36 7.43-1.09 12.08-3.48 12.78-6.54 0.77-3.43-3.8-6.96-11.4-8.79" fill="#f9b42a"/></g>
  <g id="change3_4"><path d="m303.87 242.58c-0.38-0.79-0.78-1.58-1.19-2.35 13.58-3.85 23.11-9.93 25.38-16.94 2.42-1.68 4.43-3.47 5.97-5.34 0.12 0.66 0.18 1.33 0.18 2.01 0 9.5-12.1 17.86-30.34 22.62m-1.92-3.65c-0.9-1.59-1.88-3.13-2.93-4.63 9.76-1.96 18.21-4.84 24.7-8.35-3.39 5.29-11.22 9.85-21.77 12.98" fill="#f7980f"/></g>
  <g id="change4_4"><path d="m302.68 240.23c-0.24-0.43-0.48-0.87-0.73-1.3 10.55-3.13 18.38-7.69 21.77-12.98 1.57-0.85 3.01-1.74 4.34-2.66-2.27 7.01-11.8 13.09-25.38 16.94" fill="#fac03d"/></g>
  <g id="change1_13"><path d="m337.52 202.44l-12.34-9.6c-12.47-7.29-33.14-12.07-56.55-12.07s-44.08 4.78-56.54 12.07l-12.41 9.83v6.23 0.08c0 15.58 30.87 28.2 68.95 28.2s68.96-12.62 68.96-28.2l-0.01-0.08h0.01l-0.07-6.46" fill="#f9b42a"/></g>
  <g id="change2_5"><path d="m337.53 202.98c0 15.58-30.86 28.21-68.92 28.21-38.07 0-68.93-12.63-68.93-28.21 0-15.57 30.86-28.2 68.93-28.2 38.06 0 68.92 12.63 68.92 28.2" fill="#f58611"/></g>
  <g id="change1_14"><path d="m268.61 179.68c-31.42 0-56.97 10.45-56.97 23.3 0 12.86 25.55 23.32 56.97 23.32 31.41 0 56.96-10.46 56.96-23.32 0-12.85-25.55-23.3-56.96-23.3m0 47.85c-33.08 0-59.99-11.01-59.99-24.55 0-13.53 26.91-24.54 59.99-24.54 33.07 0 59.98 11.01 59.98 24.54 0 13.54-26.91 24.55-59.98 24.55" fill="#f9b42a"/></g>
  <g id="change1_15"><path d="m279.61 209.64c-0.25 1.12-1.8 1.92-4.56 2.4-0.12-2.16-0.27-4.31-0.43-6.45 3.3 0.93 5.33 2.55 4.99 4.05m-20.07-12.89c-0.29-0.19-0.73-0.48 0.26-1.12 0.56-0.36 1.38-0.71 2.35-1.02 0.06 1.13 0.14 2.25 0.22 3.37-1.12-0.35-2.08-0.75-2.83-1.23m20.29 4.54c-1.85-0.44-3.74-0.79-5.63-1.1-0.16-2.22-0.32-4.46-0.44-6.71 1.09 0.2 1.81 0.55 2.28 1.1 1.06 1.24 4.39 1.9 7.43 1.47 3.04-0.44 4.65-1.8 3.58-3.05-2.13-2.49-7.03-4.1-13.48-4.43-0.01-0.74-0.02-1.47-0.02-2.2 0-1.32-2.61-2.39-5.83-2.39s-5.83 1.07-5.83 2.39c0 0.95 0.01 1.92 0.04 2.88-4.96 0.79-9.43 2.16-12.01 3.84-3.11 2.02-3.21 4.28-0.26 6.2 3.4 2.21 8.29 3.35 13.12 4.19 0.22 2.73 0.43 5.52 0.59 8.31-0.73-0.13-1.42-0.29-2.05-0.47-2.47-0.71-3.74-1.62-3.76-2.69-0.02-1.31-2.63-2.37-5.83-2.37h-0.04c-3.22 0.01-5.81 1.08-5.79 2.4 0.04 2.64 3.15 4.97 8.74 6.57 2.65 0.76 5.72 1.3 8.93 1.62 0.03 0.92 0.04 1.84 0.04 2.76 0 1.32 2.62 2.38 5.84 2.38s5.83-1.06 5.83-2.38c0-0.88-0.01-1.75-0.03-2.63 1.1-0.09 2.17-0.21 3.2-0.36 7.43-1.09 12.08-3.48 12.78-6.53 0.77-3.44-3.8-6.97-11.4-8.8" fill="#f9b42a"/></g>
  <g id="change3_5"><path d="m293.63 227.7c-0.66-0.7-1.33-1.38-2.02-2.05 19.34-3.3 33.6-10.63 36.45-19.42 2.42-1.68 4.43-3.46 5.97-5.34 0.12 0.66 0.18 1.33 0.18 2.01 0 11.19-16.76 20.78-40.58 24.8m-3.24-3.18c-2.03-1.84-4.18-3.54-6.46-5.09 16.15-1.5 30.14-5.31 39.79-10.54-4.54 7.08-17.03 12.86-33.33 15.63" fill="#f7980f"/></g>
  <g id="change4_5"><path d="m291.61 225.65c-0.4-0.38-0.81-0.76-1.22-1.13 16.3-2.77 28.79-8.55 33.33-15.63 1.57-0.85 3.01-1.74 4.34-2.66-2.85 8.79-17.11 16.12-36.45 19.42" fill="#fac03d"/></g>
  <g id="change1_16"><path d="m337.52 185.38l-12.34-9.59c-12.47-7.3-33.14-12.07-56.55-12.07s-44.08 4.77-56.54 12.07l-12.41 9.82v6.23 0.08c0 15.58 30.87 28.21 68.95 28.21s68.96-12.63 68.96-28.21l-0.01-0.08h0.01l-0.07-6.46" fill="#f9b42a"/></g>
  <g id="change2_6"><path d="m337.53 185.93c0 15.58-30.86 28.2-68.92 28.2-38.07 0-68.93-12.62-68.93-28.2s30.86-28.21 68.93-28.21c38.06 0 68.92 12.63 68.92 28.21" fill="#f58611"/></g>
  <g id="change1_17"><path d="m268.61 162.62c-31.42 0-56.97 10.45-56.97 23.31 0 12.85 25.55 23.31 56.97 23.31 31.41 0 56.96-10.46 56.96-23.31 0-12.86-25.55-23.31-56.96-23.31m0 47.85c-33.08 0-59.99-11.01-59.99-24.54 0-13.54 26.91-24.54 59.99-24.54 33.07 0 59.98 11 59.98 24.54 0 13.53-26.91 24.54-59.98 24.54" fill="#f9b42a"/></g>
  <g id="change1_18"><path d="m279.61 192.59c-0.25 1.11-1.8 1.91-4.56 2.39-0.12-2.16-0.27-4.31-0.43-6.44 3.3 0.93 5.33 2.55 4.99 4.05m-20.07-12.9c-0.29-0.19-0.73-0.48 0.26-1.12 0.56-0.36 1.38-0.71 2.35-1.02 0.06 1.13 0.14 2.25 0.22 3.37-1.12-0.35-2.08-0.74-2.83-1.23m20.29 4.55c-1.85-0.44-3.74-0.8-5.63-1.11-0.16-2.22-0.32-4.46-0.44-6.7 1.09 0.19 1.81 0.54 2.28 1.09 1.06 1.25 4.39 1.9 7.43 1.47 3.04-0.44 4.65-1.8 3.58-3.04-2.13-2.5-7.03-4.11-13.48-4.44-0.01-0.74-0.02-1.47-0.02-2.2 0-1.32-2.61-2.39-5.83-2.39s-5.83 1.07-5.83 2.39c0 0.96 0.01 1.92 0.04 2.88-4.96 0.79-9.43 2.16-12.01 3.84-3.11 2.02-3.21 4.28-0.26 6.2 3.4 2.22 8.29 3.35 13.12 4.19 0.22 2.74 0.43 5.52 0.59 8.31-0.73-0.13-1.42-0.29-2.05-0.47-2.47-0.71-3.74-1.61-3.76-2.69-0.02-1.31-2.63-2.37-5.83-2.37h-0.04c-3.22 0.01-5.81 1.09-5.79 2.4 0.04 2.64 3.15 4.97 8.74 6.58 2.65 0.75 5.72 1.29 8.93 1.61 0.03 0.92 0.04 1.84 0.04 2.76 0 1.32 2.62 2.39 5.84 2.39s5.83-1.07 5.83-2.39c0-0.87-0.01-1.75-0.03-2.62 1.1-0.09 2.17-0.22 3.2-0.37 7.43-1.09 12.08-3.47 12.78-6.53 0.77-3.44-3.8-6.97-11.4-8.79" fill="#f9b42a"/></g>
  <g id="change3_6"><path d="m270.5 212.64c-2.81-0.99-5.72-1.77-8.71-2.33 2.24 0.11 4.51 0.16 6.82 0.16 27.39 0 50.56-7.55 57.7-17.84 3.32-2.07 5.99-4.32 7.9-6.72-0.09 14.53-28.41 26.34-63.71 26.73m-29.4-2.47c-1.92-0.37-3.8-0.77-5.61-1.21-0.23-0.96-0.56-1.92-1.01-2.85 4.87 1.38 10.27 2.47 16.04 3.22-3.21 0.03-6.36 0.31-9.42 0.84m27.51-0.93c-12.57 0-24.2-1.67-33.63-4.51 0.04-0.09 0.08-0.18 0.11-0.28 3.59 0.25 7.28 0.38 11.04 0.38 2.42 0 4.81-0.05 7.16-0.16 4.93 0.46 10.07 0.71 15.34 0.71 20.4 0 38.73-3.63 51.35-9.38-9.2 7.82-28.77 13.24-51.37 13.24" fill="#f7980f"/></g>
  <g id="change4_6"><path d="m268.61 210.47c-2.31 0-4.58-0.05-6.82-0.16-3.49-0.64-7.08-0.98-10.75-0.98h-0.52c-5.77-0.75-11.17-1.84-16.04-3.22-0.02-0.04-0.03-0.07-0.05-0.11 0.21-0.42 0.39-0.84 0.55-1.27 9.43 2.84 21.06 4.51 33.63 4.51 22.6 0 42.17-5.42 51.37-13.24 2.31-1.06 4.43-2.18 6.33-3.37-7.14 10.29-30.31 17.84-57.7 17.84" fill="#fac03d"/></g>
  <g id="change1_19"><path d="m337.52 170.63l-12.34-9.59c-12.47-7.3-33.14-12.08-56.55-12.08s-44.08 4.78-56.54 12.08l-12.41 9.82v6.23 0.08c0 15.58 30.87 28.21 68.95 28.21s68.96-12.63 68.96-28.21l-0.01-0.08h0.01l-0.07-6.46" fill="#f9b42a"/></g>
  <g id="change2_7"><path d="m337.53 171.18c0 15.57-30.86 28.2-68.92 28.2-38.07 0-68.93-12.63-68.93-28.2 0-15.58 30.86-28.21 68.93-28.21 38.06 0 68.92 12.63 68.92 28.21" fill="#f58611"/></g>
  <g id="change1_20"><path d="m268.61 147.87c-31.42 0-56.97 10.45-56.97 23.31 0 12.85 25.55 23.3 56.97 23.3 31.41 0 56.96-10.45 56.96-23.3 0-12.86-25.55-23.31-56.96-23.31m0 47.85c-33.08 0-59.99-11.01-59.99-24.54 0-13.54 26.91-24.55 59.99-24.55 33.07 0 59.98 11.01 59.98 24.55 0 13.53-26.91 24.54-59.98 24.54" fill="#f9b42a"/></g>
  <g id="change1_21"><path d="m279.61 177.84c-0.25 1.11-1.8 1.91-4.56 2.39-0.12-2.16-0.27-4.32-0.43-6.44 3.3 0.92 5.33 2.55 4.99 4.05m-20.07-12.9c-0.29-0.19-0.73-0.48 0.26-1.12 0.56-0.36 1.38-0.71 2.35-1.02 0.06 1.13 0.14 2.25 0.22 3.37-1.12-0.35-2.08-0.74-2.83-1.23m20.29 4.54c-1.85-0.44-3.74-0.79-5.63-1.1-0.16-2.22-0.32-4.46-0.44-6.71 1.09 0.2 1.81 0.55 2.28 1.1 1.06 1.25 4.39 1.9 7.43 1.46 3.04-0.43 4.65-1.79 3.58-3.03-2.13-2.5-7.03-4.11-13.48-4.44-0.01-0.74-0.02-1.47-0.02-2.21 0-1.31-2.61-2.38-5.83-2.38s-5.83 1.07-5.83 2.38c0 0.97 0.01 1.93 0.04 2.89-4.96 0.79-9.43 2.16-12.01 3.84-3.11 2.02-3.21 4.28-0.26 6.2 3.4 2.22 8.29 3.35 13.12 4.18 0.22 2.75 0.43 5.53 0.59 8.32-0.73-0.13-1.42-0.29-2.05-0.47-2.47-0.71-3.74-1.62-3.76-2.69-0.02-1.32-2.63-2.37-5.83-2.37h-0.04c-3.22 0.01-5.81 1.08-5.79 2.4 0.04 2.64 3.15 4.97 8.74 6.57 2.65 0.76 5.72 1.3 8.93 1.62 0.03 0.92 0.04 1.84 0.04 2.76 0 1.31 2.62 2.38 5.84 2.38s5.83-1.07 5.83-2.38c0-0.88-0.01-1.75-0.03-2.63 1.1-0.09 2.17-0.21 3.2-0.36 7.43-1.09 12.08-3.47 12.78-6.53 0.77-3.44-3.8-6.97-11.4-8.8" fill="#f9b42a"/></g>
  <g id="change3_7"><path d="m268.69 197.9c-11.98 0-23.21-1.31-32.87-3.61v-0.27c0.01-0.15 0.01-0.31 0.01-0.47 0-0.62-0.04-1.25-0.14-1.86 9.46 2.54 20.77 4.03 32.92 4.03 27.39 0 50.56-7.56 57.7-17.84 3.32-2.07 5.99-4.33 7.9-6.72-0.09 14.77-29.39 26.74-65.52 26.74m-0.08-3.42c-12.41 0-23.9-1.62-33.26-4.39-0.03-0.13-0.07-0.25-0.11-0.38 3.54 0.24 7.18 0.37 10.89 0.37 2.42 0 4.8-0.06 7.15-0.16 4.94 0.46 10.07 0.7 15.35 0.7 20.39 0 38.72-3.62 51.35-9.38-9.2 7.83-28.77 13.24-51.37 13.24" fill="#f7980f"/></g>
  <g id="change4_7"><path d="m268.61 195.72c-12.15 0-23.46-1.49-32.92-4.03-0.08-0.54-0.19-1.07-0.34-1.6 9.36 2.77 20.85 4.39 33.26 4.39 22.6 0 42.17-5.41 51.37-13.24 2.31-1.05 4.43-2.17 6.33-3.36-7.14 10.28-30.31 17.84-57.7 17.84" fill="#fac03d"/></g>
  <g id="change1_22"><path d="m337.52 155.88l-12.34-9.6c-12.47-7.29-33.14-12.07-56.55-12.07s-44.08 4.78-56.54 12.07l-12.41 9.83v6.23 0.08c0 15.57 30.87 28.2 68.95 28.2s68.96-12.63 68.96-28.2l-0.01-0.08h0.01l-0.07-6.46" fill="#f9b42a"/></g>
  <g id="change2_8"><path d="m337.53 156.43c0 15.57-30.86 28.2-68.92 28.2-38.07 0-68.93-12.63-68.93-28.2 0-15.58 30.86-28.21 68.93-28.21 38.06 0 68.92 12.63 68.92 28.21" fill="#f58611"/></g>
  <g id="change1_23"><path d="m268.61 133.11c-31.42 0-56.97 10.46-56.97 23.32 0 12.85 25.55 23.3 56.97 23.3 31.41 0 56.96-10.45 56.96-23.3 0-12.86-25.55-23.32-56.96-23.32m0 47.86c-33.08 0-59.99-11.01-59.99-24.54 0-13.54 26.91-24.55 59.99-24.55 33.07 0 59.98 11.01 59.98 24.55 0 13.53-26.91 24.54-59.98 24.54" fill="#f9b42a"/></g>
  <g id="change1_24"><path d="m279.61 163.08c-0.25 1.12-1.8 1.92-4.56 2.39-0.12-2.16-0.27-4.31-0.43-6.44 3.3 0.93 5.33 2.56 4.99 4.05m-20.07-12.9c-0.29-0.18-0.73-0.47 0.26-1.11 0.56-0.37 1.38-0.71 2.35-1.02 0.06 1.13 0.14 2.25 0.22 3.36-1.12-0.34-2.08-0.74-2.83-1.23m20.29 4.55c-1.85-0.44-3.74-0.79-5.63-1.11-0.16-2.22-0.32-4.46-0.44-6.7 1.09 0.2 1.81 0.55 2.28 1.1 1.06 1.24 4.39 1.9 7.43 1.46 3.04-0.43 4.65-1.79 3.58-3.04-2.13-2.49-7.03-4.1-13.48-4.43-0.01-0.74-0.02-1.47-0.02-2.21 0-1.32-2.61-2.39-5.83-2.39s-5.83 1.07-5.83 2.39c0 0.97 0.01 1.93 0.04 2.89-4.96 0.79-9.43 2.15-12.01 3.83-3.11 2.03-3.21 4.28-0.26 6.2 3.4 2.22 8.29 3.35 13.12 4.19 0.22 2.74 0.43 5.53 0.59 8.32-0.73-0.14-1.42-0.29-2.05-0.48-2.47-0.7-3.74-1.61-3.76-2.68-0.02-1.32-2.63-2.37-5.83-2.37h-0.04c-3.22 0-5.81 1.08-5.79 2.4 0.04 2.63 3.15 4.97 8.74 6.57 2.65 0.76 5.72 1.3 8.93 1.62 0.03 0.92 0.04 1.84 0.04 2.75 0 1.32 2.62 2.39 5.84 2.39s5.83-1.07 5.83-2.39c0-0.87-0.01-1.74-0.03-2.62 1.1-0.09 2.17-0.21 3.2-0.36 7.43-1.1 12.08-3.47 12.78-6.54 0.77-3.43-3.8-6.97-11.4-8.79" fill="#f9b42a"/></g>
  <g id="change3_8"><path d="m268.69 183.15c-21.51 0-40.59-4.24-52.54-10.79 3.54 0.75 7.26 1.36 11.14 1.84 10.76 4.19 25.32 6.77 41.32 6.77 27.39 0 50.56-7.56 57.7-17.85 3.32-2.06 5.99-4.32 7.9-6.71-0.09 14.77-29.39 26.74-65.52 26.74m-0.08-3.42c-13.13 0-25.22-1.82-34.87-4.88 4.01 0.31 8.15 0.47 12.39 0.47 2.42 0 4.8-0.05 7.15-0.15 4.93 0.46 10.07 0.7 15.35 0.7 20.39 0 38.72-3.62 51.35-9.38-9.2 7.83-28.77 13.24-51.37 13.24" fill="#f7980f"/></g>
  <g id="change4_8"><path d="m268.61 180.97c-16 0-30.56-2.58-41.32-6.77 2.1 0.26 4.26 0.48 6.45 0.65 9.65 3.06 21.74 4.88 34.87 4.88 22.6 0 42.17-5.41 51.37-13.24 2.31-1.05 4.43-2.18 6.33-3.37-7.14 10.29-30.31 17.85-57.7 17.85" fill="#fac03d"/></g>
  <g id="change1_25"><path d="m337.52 141.12l-12.34-9.59c-12.47-7.3-33.14-12.07-56.55-12.07s-44.08 4.77-56.54 12.07l-12.41 9.83v6.22 0.08c0 15.58 30.87 28.21 68.95 28.21s68.96-12.63 68.96-28.21l-0.01-0.08h0.01l-0.07-6.46" fill="#f9b42a"/></g>
  <g id="change2_9"><path d="m337.53 141.67c0 15.58-30.86 28.21-68.92 28.21-38.07 0-68.93-12.63-68.93-28.21s30.86-28.2 68.93-28.2c38.06 0 68.92 12.62 68.92 28.2" fill="#f58611"/></g>
  <g id="change1_26"><path d="m268.61 118.36c-31.42 0-56.97 10.46-56.97 23.31s25.55 23.31 56.97 23.31c31.41 0 56.96-10.46 56.96-23.31s-25.55-23.31-56.96-23.31m0 47.85c-33.08 0-59.99-11.01-59.99-24.54s26.91-24.54 59.99-24.54c33.07 0 59.98 11.01 59.98 24.54s-26.91 24.54-59.98 24.54" fill="#f9b42a"/></g>
  <g id="change1_27"><path d="m279.61 148.33c-0.25 1.12-1.8 1.92-4.56 2.39-0.12-2.16-0.27-4.31-0.43-6.44 3.3 0.93 5.33 2.55 4.99 4.05m-20.07-12.9c-0.29-0.19-0.73-0.47 0.26-1.12 0.56-0.36 1.38-0.7 2.35-1.01 0.06 1.12 0.14 2.24 0.22 3.36-1.12-0.34-2.08-0.74-2.83-1.23m20.29 4.55c-1.85-0.44-3.74-0.79-5.63-1.11-0.16-2.22-0.32-4.46-0.44-6.7 1.09 0.2 1.81 0.54 2.28 1.1 1.06 1.24 4.39 1.89 7.43 1.46s4.65-1.8 3.58-3.04c-2.13-2.49-7.03-4.1-13.48-4.44-0.01-0.73-0.02-1.46-0.02-2.2 0-1.32-2.61-2.39-5.83-2.39s-5.83 1.07-5.83 2.39c0 0.96 0.01 1.92 0.04 2.88-4.96 0.8-9.43 2.16-12.01 3.84-3.11 2.02-3.21 4.28-0.26 6.2 3.4 2.22 8.29 3.35 13.12 4.19 0.22 2.74 0.43 5.52 0.59 8.32-0.73-0.14-1.42-0.3-2.05-0.48-2.47-0.71-3.74-1.61-3.76-2.69-0.02-1.31-2.63-2.37-5.83-2.37h-0.04c-3.22 0.01-5.81 1.09-5.79 2.4 0.04 2.64 3.15 4.98 8.74 6.58 2.65 0.75 5.72 1.29 8.93 1.62 0.03 0.92 0.04 1.84 0.04 2.75 0 1.32 2.62 2.39 5.84 2.39s5.83-1.07 5.83-2.39c0-0.87-0.01-1.75-0.03-2.62 1.1-0.09 2.17-0.21 3.2-0.37 7.43-1.09 12.08-3.47 12.78-6.53 0.77-3.43-3.8-6.97-11.4-8.79" fill="#f9b42a"/></g>
  <g id="change3_9"><path d="m268.69 168.39c-21.51 0-40.59-4.23-52.54-10.78 3.54 0.74 7.26 1.36 11.14 1.84 10.76 4.19 25.32 6.76 41.32 6.76 27.39 0 50.56-7.55 57.7-17.84 3.32-2.06 5.99-4.32 7.9-6.72-0.09 14.78-29.39 26.74-65.52 26.74m-0.08-3.41c-13.13 0-25.22-1.82-34.86-4.89 4.01 0.32 8.15 0.48 12.38 0.48 2.42 0 4.81-0.05 7.16-0.16 4.93 0.47 10.07 0.71 15.34 0.71 20.39 0 38.73-3.63 51.35-9.38-9.2 7.83-28.77 13.24-51.37 13.24" fill="#f7980f"/></g>
  <g id="change4_9"><path d="m268.61 166.21c-16 0-30.56-2.57-41.32-6.76 2.11 0.26 4.26 0.47 6.46 0.64 9.64 3.07 21.73 4.89 34.86 4.89 22.6 0 42.17-5.41 51.37-13.24 2.31-1.06 4.43-2.18 6.33-3.37-7.14 10.29-30.31 17.84-57.7 17.84" fill="#fac03d"/></g>
  <g id="change1_28"><path d="m337.52 126.37l-12.34-9.59c-12.47-7.3-33.14-12.07-56.55-12.07s-44.08 4.77-56.54 12.07l-12.41 9.83v6.22 0.08c0 15.58 30.87 28.21 68.95 28.21s68.96-12.63 68.96-28.21l-0.01-0.08h0.01l-0.07-6.46" fill="#f9b42a"/></g>
  <g id="change2_10"><path d="m337.53 126.92c0 15.58-30.86 28.2-68.92 28.2-38.07 0-68.93-12.62-68.93-28.2s30.86-28.205 68.93-28.205c38.06 0 68.92 12.625 68.92 28.205" fill="#f58611"/></g>
  <g id="change1_29"><path d="m268.61 103.61c-31.42 0-56.97 10.46-56.97 23.31s25.55 23.31 56.97 23.31c31.41 0 56.96-10.46 56.96-23.31s-25.55-23.31-56.96-23.31m0 47.85c-33.08 0-59.99-11.01-59.99-24.54s26.91-24.54 59.99-24.54c33.07 0 59.98 11.01 59.98 24.54s-26.91 24.54-59.98 24.54" fill="#f9b42a"/></g>
  <g id="change1_30"><path d="m279.61 133.58c-0.25 1.12-1.8 1.91-4.56 2.39-0.12-2.16-0.27-4.31-0.43-6.44 3.3 0.93 5.33 2.55 4.99 4.05m-20.07-12.9c-0.29-0.19-0.73-0.48 0.26-1.12 0.56-0.36 1.38-0.7 2.35-1.01 0.06 1.12 0.14 2.24 0.22 3.36-1.12-0.34-2.08-0.74-2.83-1.23m20.29 4.55c-1.85-0.44-3.74-0.8-5.63-1.11-0.16-2.22-0.32-4.46-0.44-6.71 1.09 0.2 1.81 0.55 2.28 1.1 1.06 1.25 4.39 1.9 7.43 1.47 3.04-0.44 4.65-1.8 3.58-3.04-2.13-2.5-7.03-4.11-13.48-4.44-0.01-0.73-0.02-1.47-0.02-2.2 0-1.32-2.61-2.39-5.83-2.39s-5.83 1.07-5.83 2.39c0 0.96 0.01 1.92 0.04 2.88-4.96 0.79-9.43 2.16-12.01 3.84-3.11 2.02-3.21 4.28-0.26 6.2 3.4 2.22 8.29 3.35 13.12 4.19 0.22 2.74 0.43 5.52 0.59 8.32-0.73-0.14-1.42-0.3-2.05-0.48-2.47-0.71-3.74-1.61-3.76-2.69-0.02-1.31-2.63-2.37-5.83-2.37h-0.04c-3.22 0.01-5.81 1.08-5.79 2.4 0.04 2.64 3.15 4.98 8.74 6.57 2.65 0.76 5.72 1.3 8.93 1.62 0.03 0.92 0.04 1.84 0.04 2.76 0 1.32 2.62 2.39 5.84 2.39s5.83-1.07 5.83-2.39c0-0.88-0.01-1.75-0.03-2.63 1.1-0.09 2.17-0.2 3.2-0.36 7.43-1.09 12.08-3.47 12.78-6.53 0.77-3.44-3.8-6.97-11.4-8.79" fill="#f9b42a"/></g>
  <g id="change3_10"><path d="m268.69 153.64c-21.51 0-40.59-4.24-52.54-10.78 3.54 0.74 7.26 1.36 11.14 1.84 10.76 4.19 25.32 6.76 41.32 6.76 33.07 0 59.98-11.01 59.98-24.54 0-7.87-9.1-14.88-23.21-19.38-1.87-1.61-4.12-3.14-6.71-4.56 21.11 4.46 35.54 13.47 35.54 23.85 0 14.81-29.33 26.81-65.52 26.81m-0.08-3.41c-13.13 0-25.22-1.83-34.87-4.89 4.02 0.32 8.16 0.48 12.39 0.48 6.35 0 12.49-0.37 18.3-1.06 1.02 0.7 2.89 1.17 5.02 1.17 3.22 0 5.83-1.07 5.83-2.39v-0.51c21.56-4.39 36.38-13.5 36.38-24.02 0-3.13-1.32-6.15-3.74-8.94 10.87 4.25 17.65 10.23 17.65 16.85 0 12.85-25.55 23.31-56.96 23.31" fill="#f7980f"/></g>
  <g id="change4_10"><path d="m268.61 151.46c-16 0-30.56-2.57-41.32-6.76 2.1 0.25 4.26 0.47 6.45 0.64 9.65 3.06 21.74 4.89 34.87 4.89 31.41 0 56.96-10.46 56.96-23.31 0-6.62-6.78-12.6-17.65-16.85-0.74-0.87-1.6-1.71-2.54-2.53 14.11 4.5 23.21 11.51 23.21 19.38 0 13.53-26.91 24.54-59.98 24.54" fill="#fac03d"/></g>
  <g id="change4_11"><path d="m269.45 145.93c-2.13 0-4-0.47-5.02-1.17 3.77-0.45 7.39-1.03 10.85-1.73v0.51c0 1.32-2.61 2.39-5.83 2.39" fill="#fac03d"/></g>
  <g id="change5_1"><path d="m216.72 127.68h-0.28v-0.4c0.01-0.26-0.05-0.63 0.03-1.12 0.03-0.23 0.07-0.5 0.1-0.8 0.07-0.29 0.15-0.6 0.23-0.93 0.2-0.67 0.5-1.42 0.94-2.23 0.21-0.41 0.5-0.82 0.77-1.26 0.34-0.43 0.63-0.88 1.05-1.32 0.2-0.23 0.4-0.46 0.61-0.69 0.22-0.22 0.47-0.45 0.71-0.68 0.46-0.47 1.05-0.92 1.6-1.39 1.2-0.92 2.56-1.85 4.12-2.75 1.58-0.89 3.32-1.75 5.21-2.56 1.9-0.81 3.95-1.55 6.06-2.25 2.13-0.68 4.36-1.28 6.61-1.8 1.16-0.23 2.27-0.49 3.42-0.68 0.57-0.1 1.13-0.2 1.69-0.29 0.57-0.09 1.14-0.17 1.69-0.26 1.11-0.16 2.22-0.29 3.28-0.42 1.08-0.11 2.12-0.22 3.12-0.3 2.02-0.17 3.89-0.26 5.54-0.32 0.83-0.02 1.6-0.04 2.32-0.06h1.98 0.23c0.5 0 0.95 0.01 1.35 0.02 0.45 0.02 0.85 0.03 1.17 0.04 0.62 0.02 0.96 0.03 0.96 0.03v0.11s-0.33 0.02-0.96 0.06c-0.62 0.04-1.54 0.06-2.69 0.14-0.58 0.04-1.21 0.08-1.9 0.13s-1.43 0.11-2.23 0.18c-0.79 0.07-1.62 0.15-2.5 0.23-0.88 0.09-1.78 0.21-2.73 0.31-0.95 0.12-1.92 0.26-2.92 0.39-0.99 0.16-2.04 0.3-3.07 0.48-2.08 0.35-4.21 0.78-6.37 1.25-2.15 0.48-4.32 1.01-6.45 1.61-2.1 0.61-4.13 1.3-6.04 2.04-1.89 0.75-3.64 1.55-5.25 2.38-1.58 0.85-2.99 1.72-4.23 2.6-1.2 0.89-2.27 1.77-3.12 2.63-0.46 0.43-0.79 0.86-1.17 1.28-0.32 0.42-0.65 0.82-0.91 1.21-0.53 0.79-0.9 1.52-1.18 2.18-0.12 0.33-0.24 0.64-0.35 0.92-0.07 0.29-0.14 0.55-0.2 0.79-0.15 0.47-0.14 0.85-0.19 1.11-0.04 0.25-0.05 0.39-0.05 0.39" fill="#f8a10d"/></g>
  <g id="change1_31"><path d="m235.81 284.66l-13.27-10.32c-13.4-7.84-35.62-12.97-60.79-12.97s-47.39 5.13-60.79 12.97l-13.347 10.57v6.69h0.004l-0.004 0.09c0 16.75 33.187 30.33 74.137 30.33s74.14-13.58 74.14-30.33l-0.01-0.09h0.01l-0.08-6.94" fill="#f9b42a"/></g>
  <g id="change2_11"><path d="m235.83 285.25c0 16.75-33.18 30.32-74.11 30.32s-74.107-13.57-74.107-30.32 33.177-30.32 74.107-30.32 74.11 13.57 74.11 30.32" fill="#f58611"/></g>
  <g id="change1_32"><path d="m161.72 260.19c-33.77 0-61.24 11.24-61.24 25.06s27.47 25.06 61.24 25.06 61.25-11.24 61.25-25.06-27.48-25.06-61.25-25.06m0 51.44c-35.56 0-64.486-11.83-64.486-26.38s28.926-26.39 64.486-26.39 64.49 11.84 64.49 26.39-28.93 26.38-64.49 26.38" fill="#f9b42a"/></g>
  <g id="change1_33"><path d="m173.55 292.41c-0.27 1.2-1.93 2.05-4.9 2.57-0.13-2.33-0.29-4.64-0.46-6.93 3.55 1 5.73 2.75 5.36 4.36m-21.58-13.87c-0.31-0.2-0.78-0.51 0.28-1.2 0.6-0.39 1.48-0.76 2.53-1.09 0.07 1.2 0.15 2.41 0.24 3.61-1.21-0.37-2.24-0.8-3.05-1.32m21.82 4.89c-1.98-0.48-4.02-0.86-6.05-1.2-0.18-2.38-0.35-4.79-0.47-7.2 1.17 0.21 1.94 0.59 2.44 1.18 1.15 1.34 4.73 2.04 8 1.58 3.27-0.47 4.99-1.94 3.85-3.27-2.29-2.69-7.57-4.42-14.49-4.77-0.02-0.79-0.03-1.59-0.03-2.37 0-1.42-2.81-2.57-6.27-2.57-3.47 0-6.27 1.15-6.27 2.57 0 1.03 0.02 2.07 0.04 3.1-5.33 0.85-10.13 2.32-12.9 4.13-3.35 2.17-3.45 4.6-0.29 6.66 3.66 2.38 8.92 3.6 14.11 4.5 0.23 2.95 0.46 5.94 0.63 8.94-0.78-0.14-1.52-0.31-2.2-0.51-2.66-0.76-4.02-1.73-4.04-2.89-0.02-1.41-2.83-2.54-6.27-2.54h-0.04c-3.47 0-6.25 1.16-6.23 2.58 0.05 2.83 3.39 5.35 9.4 7.06 2.85 0.82 6.15 1.4 9.61 1.74 0.02 0.99 0.04 1.98 0.04 2.97 0 1.42 2.8 2.56 6.27 2.56 3.46 0 6.27-1.14 6.27-2.56 0-0.94-0.01-1.89-0.04-2.83 1.19-0.09 2.34-0.22 3.45-0.38 7.98-1.18 12.99-3.74 13.73-7.03 0.84-3.69-4.09-7.49-12.25-9.45" fill="#f9b42a"/></g>
  <g id="change3_11"><path d="m161.81 313.98c-23.12 0-43.64-4.56-56.49-11.6 3.81 0.8 7.81 1.47 11.98 1.98 11.57 4.5 27.22 7.27 44.42 7.27 16.84 0 32.19-2.65 43.68-6.99 0.68 0.84 1.37 1.66 2.1 2.46-12.3 4.29-28.26 6.88-45.69 6.88m-0.09-3.67c-14.11 0-27.11-1.96-37.48-5.26 4.31 0.34 8.77 0.52 13.32 0.52 6.83 0 13.43-0.4 19.68-1.14 1.09 0.75 3.1 1.25 5.39 1.25 3.11 0 5.69-0.92 6.19-2.14 11.89-0.46 22.96-2.07 32.55-4.56 0.92 1.47 1.9 2.89 2.94 4.26-11.03 4.37-26.06 7.07-42.59 7.07" fill="#f7980f"/></g>
  <g id="change4_12"><path d="m161.72 311.63c-17.2 0-32.85-2.77-44.42-7.27 2.27 0.28 4.58 0.51 6.94 0.69 10.37 3.3 23.37 5.26 37.48 5.26 16.53 0 31.56-2.7 42.59-7.07 0.35 0.47 0.72 0.94 1.09 1.4-11.49 4.34-26.84 6.99-43.68 6.99" fill="#fac03d"/></g>
  <g id="change4_13"><path d="m162.63 305.68c-2.29 0-4.3-0.5-5.39-1.25 1.87-0.22 3.71-0.48 5.51-0.76 2.04-0.01 4.07-0.05 6.07-0.13-0.5 1.22-3.08 2.14-6.19 2.14" fill="#fac03d"/></g>
  <g id="change1_34"><path d="m235.81 266.32l-13.27-10.32c-13.4-7.84-35.62-12.97-60.79-12.97s-47.39 5.13-60.79 12.97l-13.347 10.57v6.69h0.004l-0.004 0.09c0 16.75 33.187 30.33 74.137 30.33s74.14-13.58 74.14-30.33l-0.01-0.09h0.01l-0.08-6.94" fill="#f9b42a"/></g>
  <g id="change2_12"><path d="m235.83 266.91c0 16.75-33.18 30.32-74.11 30.32s-74.107-13.57-74.107-30.32 33.177-30.32 74.107-30.32 74.11 13.57 74.11 30.32" fill="#f58611"/></g>
  <g id="change1_35"><path d="m161.72 241.85c-33.77 0-61.24 11.24-61.24 25.06s27.47 25.06 61.24 25.06 61.25-11.24 61.25-25.06-27.48-25.06-61.25-25.06m0 51.45c-35.56 0-64.486-11.84-64.486-26.39s28.926-26.39 64.486-26.39 64.49 11.84 64.49 26.39-28.93 26.39-64.49 26.39" fill="#f9b42a"/></g>
  <g id="change1_36"><path d="m173.55 274.07c-0.27 1.2-1.93 2.06-4.9 2.57-0.13-2.32-0.29-4.64-0.46-6.93 3.55 1 5.73 2.75 5.36 4.36m-21.58-13.87c-0.31-0.2-0.78-0.51 0.28-1.2 0.6-0.39 1.48-0.76 2.53-1.09 0.07 1.2 0.15 2.41 0.24 3.61-1.21-0.37-2.24-0.79-3.05-1.32m21.82 4.89c-1.98-0.48-4.02-0.86-6.05-1.19-0.18-2.39-0.35-4.79-0.47-7.21 1.17 0.21 1.94 0.59 2.44 1.18 1.15 1.34 4.73 2.04 8 1.58 3.27-0.47 4.99-1.93 3.85-3.27-2.29-2.68-7.57-4.42-14.49-4.77-0.02-0.79-0.03-1.58-0.03-2.37 0-1.42-2.81-2.57-6.27-2.57-3.47 0-6.27 1.15-6.27 2.57 0 1.03 0.02 2.07 0.04 3.1-5.33 0.85-10.13 2.32-12.9 4.13-3.35 2.17-3.45 4.6-0.29 6.66 3.66 2.39 8.92 3.6 14.11 4.5 0.23 2.95 0.46 5.95 0.63 8.95-0.78-0.15-1.52-0.32-2.2-0.52-2.66-0.75-4.02-1.73-4.04-2.89-0.02-1.41-2.83-2.54-6.27-2.54h-0.04c-3.47 0-6.25 1.16-6.23 2.58 0.05 2.83 3.39 5.35 9.4 7.06 2.85 0.82 6.15 1.4 9.61 1.74 0.02 0.99 0.04 1.98 0.04 2.97 0 1.42 2.8 2.56 6.27 2.56 3.46 0 6.27-1.14 6.27-2.56 0-0.94-0.01-1.88-0.04-2.83 1.19-0.09 2.34-0.22 3.45-0.38 7.98-1.18 12.99-3.74 13.73-7.03 0.84-3.69-4.09-7.49-12.25-9.45" fill="#f9b42a"/></g>
  <g id="change3_12"><path d="m161.81 295.64c-23.12 0-43.64-4.56-56.49-11.6 3.81 0.8 7.81 1.47 11.98 1.98 11.57 4.51 27.22 7.28 44.42 7.28 12.77 0 24.68-1.53 34.7-4.16 0.34 0.86 0.69 1.7 1.06 2.54-10.46 2.52-22.65 3.96-35.67 3.96m-0.09-3.67c-14.11 0-27.11-1.96-37.48-5.26 4.31 0.34 8.77 0.52 13.32 0.52 6.83 0 13.43-0.4 19.68-1.14 1.09 0.75 3.1 1.25 5.39 1.25 3.11 0 5.69-0.92 6.19-2.14 9.04-0.35 17.61-1.36 25.41-2.92 0.47 1.84 1.02 3.65 1.65 5.42-9.76 2.69-21.52 4.27-34.16 4.27" fill="#f7980f"/></g>
  <g id="change4_14"><path d="m161.72 293.3c-17.2 0-32.85-2.77-44.42-7.28 2.27 0.28 4.58 0.51 6.94 0.69 10.37 3.3 23.37 5.26 37.48 5.26 12.64 0 24.4-1.58 34.16-4.27 0.18 0.48 0.36 0.96 0.54 1.44-10.02 2.63-21.93 4.16-34.7 4.16" fill="#fac03d"/></g>
  <g id="change4_15"><path d="m162.63 287.34c-2.29 0-4.3-0.5-5.39-1.25 1.87-0.22 3.71-0.47 5.51-0.75 2.04-0.02 4.07-0.06 6.07-0.14-0.5 1.22-3.08 2.14-6.19 2.14" fill="#fac03d"/></g>
  <g id="change1_37"><path d="m235.81 247.98l-13.27-10.32c-13.4-7.84-35.62-12.97-60.79-12.97s-47.39 5.13-60.79 12.97l-13.347 10.57v6.7h0.004l-0.004 0.08c0 16.75 33.187 30.33 74.137 30.33s74.14-13.58 74.14-30.33l-0.01-0.08h0.01l-0.08-6.95" fill="#f9b42a"/></g>
  <g id="change2_13"><path d="m235.83 248.57c0 16.75-33.18 30.32-74.11 30.32s-74.107-13.57-74.107-30.32 33.177-30.32 74.107-30.32 74.11 13.57 74.11 30.32" fill="#f58611"/></g>
  <g id="change1_38"><path d="m161.72 223.51c-33.77 0-61.24 11.24-61.24 25.06s27.47 25.06 61.24 25.06 61.25-11.24 61.25-25.06-27.48-25.06-61.25-25.06m0 51.45c-35.56 0-64.486-11.84-64.486-26.39s28.926-26.39 64.486-26.39 64.49 11.84 64.49 26.39-28.93 26.39-64.49 26.39" fill="#f9b42a"/></g>
  <g id="change1_39"><path d="m173.55 255.73c-0.27 1.2-1.93 2.06-4.9 2.57-0.13-2.32-0.29-4.64-0.46-6.93 3.55 1.01 5.73 2.75 5.36 4.36m-21.58-13.87c-0.31-0.2-0.78-0.51 0.28-1.2 0.6-0.39 1.48-0.76 2.53-1.09 0.07 1.21 0.15 2.41 0.24 3.61-1.21-0.37-2.24-0.79-3.05-1.32m21.82 4.89c-1.98-0.47-4.02-0.85-6.05-1.19-0.18-2.39-0.35-4.79-0.47-7.21 1.17 0.22 1.94 0.59 2.44 1.18 1.15 1.34 4.73 2.04 8 1.58 3.27-0.47 4.99-1.93 3.85-3.27-2.29-2.68-7.57-4.41-14.49-4.77-0.02-0.79-0.03-1.58-0.03-2.37 0-1.42-2.81-2.57-6.27-2.57-3.47 0-6.27 1.15-6.27 2.57 0 1.03 0.02 2.07 0.04 3.1-5.33 0.85-10.13 2.32-12.9 4.13-3.35 2.17-3.45 4.6-0.29 6.66 3.66 2.39 8.92 3.61 14.11 4.5 0.23 2.95 0.46 5.95 0.63 8.95-0.78-0.15-1.52-0.32-2.2-0.51-2.66-0.76-4.02-1.74-4.04-2.89-0.02-1.42-2.83-2.55-6.27-2.55h-0.04c-3.47 0.01-6.25 1.16-6.23 2.58 0.05 2.84 3.39 5.35 9.4 7.06 2.85 0.82 6.15 1.4 9.61 1.74 0.02 0.99 0.04 1.98 0.04 2.97 0 1.42 2.8 2.56 6.27 2.56 3.46 0 6.27-1.14 6.27-2.56 0-0.94-0.01-1.88-0.04-2.82 1.19-0.1 2.34-0.23 3.45-0.39 7.98-1.18 12.99-3.74 13.73-7.03 0.84-3.69-4.09-7.49-12.25-9.45" fill="#f9b42a"/></g>
  <g id="change3_13"><path d="m161.81 277.3c-23.12 0-43.64-4.56-56.49-11.6 3.81 0.8 7.81 1.47 11.98 1.98 11.57 4.51 27.22 7.28 44.42 7.28 11.17 0 21.69-1.17 30.86-3.23 0.06 0.89 0.13 1.77 0.23 2.64-9.36 1.88-19.88 2.93-31 2.93m-0.09-3.67c-14.11 0-27.11-1.96-37.48-5.25 4.31 0.33 8.77 0.51 13.32 0.51 6.83 0 13.43-0.4 19.68-1.14 1.1 0.75 3.1 1.25 5.39 1.25 3.11 0 5.69-0.92 6.18-2.14 8.41-0.32 16.4-1.22 23.76-2.6-0.08 1.21-0.11 2.42-0.11 3.65 0 0.77 0.01 1.55 0.04 2.32-9.05 2.16-19.57 3.4-30.78 3.4" fill="#f7980f"/></g>
  <g id="change4_16"><path d="m161.72 274.96c-17.2 0-32.85-2.77-44.42-7.28 2.27 0.28 4.58 0.51 6.94 0.7 10.37 3.29 23.37 5.25 37.48 5.25 11.21 0 21.73-1.24 30.78-3.4 0.02 0.5 0.05 1 0.08 1.5-9.17 2.06-19.69 3.23-30.86 3.23" fill="#fac03d"/></g>
  <g id="change4_17"><path d="m162.63 269c-2.29 0-4.29-0.5-5.39-1.25 1.87-0.22 3.71-0.47 5.51-0.75 2.04-0.02 4.07-0.06 6.06-0.14-0.49 1.22-3.07 2.14-6.18 2.14" fill="#fac03d"/></g>
  <g id="change1_40"><path d="m235.81 229.64l-13.27-10.32c-13.4-7.84-35.62-12.97-60.79-12.97s-47.39 5.13-60.79 12.97l-13.347 10.57v6.7h0.004l-0.004 0.09c0 16.74 33.187 30.32 74.137 30.32s74.14-13.58 74.14-30.32l-0.01-0.09h0.01l-0.08-6.95" fill="#f9b42a"/></g>
  <g id="change2_14"><path d="m235.83 230.23c0 16.75-33.18 30.32-74.11 30.32s-74.107-13.57-74.107-30.32 33.177-30.32 74.107-30.32 74.11 13.57 74.11 30.32" fill="#f58611"/></g>
  <g id="change1_41"><path d="m161.72 205.17c-33.77 0-61.24 11.24-61.24 25.06s27.47 25.06 61.24 25.06 61.25-11.24 61.25-25.06-27.48-25.06-61.25-25.06m0 51.45c-35.56 0-64.486-11.84-64.486-26.39s28.926-26.39 64.486-26.39 64.49 11.84 64.49 26.39-28.93 26.39-64.49 26.39" fill="#f9b42a"/></g>
  <g id="change1_42"><path d="m173.55 237.39c-0.27 1.2-1.93 2.06-4.9 2.57-0.13-2.32-0.29-4.64-0.46-6.92 3.55 1 5.73 2.74 5.36 4.35m-21.58-13.87c-0.31-0.2-0.78-0.51 0.28-1.2 0.6-0.39 1.48-0.76 2.53-1.09 0.07 1.21 0.15 2.41 0.24 3.61-1.21-0.36-2.24-0.79-3.05-1.32m21.82 4.89c-1.98-0.47-4.02-0.85-6.05-1.19-0.18-2.38-0.35-4.79-0.47-7.21 1.17 0.22 1.94 0.59 2.44 1.18 1.15 1.34 4.73 2.04 8 1.58 3.27-0.47 4.99-1.93 3.85-3.27-2.29-2.68-7.57-4.41-14.49-4.77-0.02-0.79-0.03-1.58-0.03-2.37 0-1.41-2.81-2.56-6.27-2.56-3.47 0-6.27 1.15-6.27 2.56 0 1.03 0.02 2.07 0.04 3.1-5.33 0.85-10.13 2.32-12.9 4.13-3.35 2.17-3.45 4.6-0.29 6.66 3.66 2.39 8.92 3.61 14.11 4.51 0.23 2.94 0.46 5.94 0.63 8.94-0.78-0.15-1.52-0.32-2.2-0.51-2.66-0.76-4.02-1.74-4.04-2.89-0.02-1.41-2.83-2.55-6.27-2.55h-0.04c-3.47 0.01-6.25 1.16-6.23 2.58 0.05 2.84 3.39 5.35 9.4 7.06 2.85 0.82 6.15 1.4 9.61 1.75 0.02 0.98 0.04 1.97 0.04 2.96 0 1.42 2.8 2.56 6.27 2.56 3.46 0 6.27-1.14 6.27-2.56 0-0.94-0.01-1.88-0.04-2.82 1.19-0.1 2.34-0.23 3.45-0.39 7.98-1.18 12.99-3.74 13.73-7.03 0.84-3.69-4.09-7.49-12.25-9.45" fill="#f9b42a"/></g>
  <g id="change3_14"><path d="m161.81 258.96c-23.12 0-43.64-4.56-56.49-11.6 3.81 0.8 7.81 1.47 11.98 1.98 11.57 4.51 27.22 7.28 44.42 7.28 11.91 0 23.07-1.33 32.66-3.64-0.25 0.95-0.48 1.9-0.68 2.87-9.58 1.99-20.41 3.11-31.89 3.11m-0.09-3.67c-14.11 0-27.11-1.96-37.48-5.25 4.31 0.34 8.77 0.51 13.32 0.51 6.83 0 13.43-0.39 19.68-1.14 1.09 0.75 3.1 1.25 5.39 1.25 3.11 0 5.69-0.92 6.18-2.14 10.17-0.39 19.74-1.62 28.3-3.52-0.88 2.04-1.63 4.14-2.27 6.3-9.55 2.52-20.93 3.99-33.12 3.99" fill="#f7980f"/></g>
  <g id="change4_18"><path d="m161.72 256.62c-17.2 0-32.85-2.77-44.42-7.28 2.27 0.28 4.58 0.51 6.94 0.7 10.37 3.29 23.37 5.25 37.48 5.25 12.19 0 23.57-1.47 33.12-3.99-0.16 0.56-0.32 1.11-0.46 1.68-9.59 2.31-20.75 3.64-32.66 3.64" fill="#fac03d"/></g>
  <g id="change4_19"><path d="m162.63 250.66c-2.29 0-4.3-0.5-5.39-1.25 1.87-0.22 3.71-0.47 5.5-0.75 2.05-0.02 4.08-0.06 6.07-0.14-0.49 1.22-3.07 2.14-6.18 2.14" fill="#fac03d"/></g>
  <g id="change1_43"><path d="m235.81 211.3l-13.27-10.31c-13.4-7.85-35.62-12.98-60.79-12.98s-47.39 5.13-60.79 12.98l-13.347 10.56v6.7h0.004l-0.004 0.09c0 16.74 33.187 30.32 74.137 30.32s74.14-13.58 74.14-30.32l-0.01-0.09h0.01l-0.08-6.95" fill="#f9b42a"/></g>
  <g id="change2_15"><path d="m235.83 211.89c0 16.75-33.18 30.32-74.11 30.32s-74.107-13.57-74.107-30.32 33.177-30.32 74.107-30.32 74.11 13.57 74.11 30.32" fill="#f58611"/></g>
  <g id="change1_44"><path d="m161.72 186.83c-33.77 0-61.24 11.24-61.24 25.06s27.47 25.06 61.24 25.06 61.25-11.24 61.25-25.06-27.48-25.06-61.25-25.06m0 51.45c-35.56 0-64.486-11.84-64.486-26.39s28.926-26.39 64.486-26.39 64.49 11.84 64.49 26.39-28.93 26.39-64.49 26.39" fill="#f9b42a"/></g>
  <g id="change1_45"><path d="m173.55 219.05c-0.27 1.2-1.93 2.06-4.9 2.57-0.13-2.32-0.29-4.64-0.46-6.92 3.55 1 5.73 2.74 5.36 4.35m-21.58-13.87c-0.31-0.2-0.78-0.51 0.28-1.2 0.6-0.39 1.48-0.76 2.53-1.09 0.07 1.21 0.15 2.41 0.24 3.62-1.21-0.37-2.24-0.8-3.05-1.33m21.82 4.89c-1.98-0.47-4.02-0.85-6.05-1.19-0.18-2.38-0.35-4.79-0.47-7.21 1.17 0.22 1.94 0.59 2.44 1.19 1.15 1.33 4.73 2.04 8 1.57s4.99-1.93 3.85-3.27c-2.29-2.68-7.57-4.41-14.49-4.77-0.02-0.79-0.03-1.58-0.03-2.37 0-1.41-2.81-2.56-6.27-2.56-3.47 0-6.27 1.15-6.27 2.56 0 1.03 0.02 2.07 0.04 3.1-5.33 0.85-10.13 2.32-12.9 4.13-3.35 2.17-3.45 4.6-0.29 6.66 3.66 2.39 8.92 3.61 14.11 4.5 0.23 2.95 0.46 5.95 0.63 8.95-0.78-0.15-1.52-0.32-2.2-0.51-2.66-0.76-4.02-1.74-4.04-2.89-0.02-1.41-2.83-2.55-6.27-2.55h-0.04c-3.47 0.01-6.25 1.16-6.23 2.58 0.05 2.84 3.39 5.35 9.4 7.07 2.85 0.81 6.15 1.39 9.61 1.74 0.02 0.99 0.04 1.97 0.04 2.96 0 1.42 2.8 2.57 6.27 2.57 3.46 0 6.27-1.15 6.27-2.57 0-0.94-0.01-1.88-0.04-2.82 1.19-0.1 2.34-0.23 3.45-0.39 7.98-1.17 12.99-3.73 13.73-7.02 0.84-3.7-4.09-7.5-12.25-9.46" fill="#f9b42a"/></g>
  <g id="change3_15"><path d="m161.81 240.62c-23.12 0-43.64-4.56-56.49-11.6 3.81 0.81 7.81 1.47 11.98 1.98 11.57 4.51 27.22 7.28 44.42 7.28 16.77 0 32.07-2.64 43.55-6.94-1.04 1.3-2.04 2.65-2.97 4.05-11.45 3.3-25.42 5.23-40.49 5.23m-0.09-3.67c-14.11 0-27.11-1.96-37.48-5.25 4.31 0.34 8.77 0.51 13.32 0.51 6.83 0 13.43-0.39 19.68-1.14 1.09 0.75 3.1 1.26 5.39 1.26 3.11 0 5.69-0.93 6.19-2.15 19.11-0.73 36.11-4.44 48.22-9.98-3.36 2.4-6.46 5.14-9.24 8.18-11.24 5.25-27.73 8.57-46.08 8.57m65.05-22.38c2.11-1.57 3.88-3.21 5.29-4.94 0.13 0.72 0.2 1.44 0.2 2.17 0 0.2-0.01 0.4-0.02 0.61-1.86 0.63-3.69 1.36-5.47 2.16" fill="#f7980f"/></g>
  <g id="change4_20"><path d="m161.72 238.28c-17.2 0-32.85-2.77-44.42-7.28 2.27 0.28 4.58 0.52 6.94 0.7 10.37 3.29 23.37 5.25 37.48 5.25 18.35 0 34.84-3.32 46.08-8.57-0.88 0.96-1.72 1.94-2.53 2.96-11.48 4.3-26.78 6.94-43.55 6.94" fill="#fac03d"/></g>
  <g id="change4_21"><path d="m162.63 232.33c-2.29 0-4.3-0.51-5.39-1.26 1.87-0.22 3.71-0.47 5.51-0.75 2.04-0.02 4.07-0.06 6.07-0.14-0.5 1.22-3.08 2.15-6.19 2.15" fill="#fac03d"/></g>
  <g id="change1_46"><path d="m235.81 192.96l-13.27-10.31c-13.4-7.85-35.62-12.98-60.79-12.98s-47.39 5.13-60.79 12.98l-13.347 10.56v6.7h0.004l-0.004 0.09c0 16.74 33.187 30.32 74.137 30.32s74.14-13.58 74.14-30.32l-0.01-0.09h0.01l-0.08-6.95" fill="#f9b42a"/></g>
  <g id="change2_16"><path d="m235.83 193.55c0 16.75-33.18 30.33-74.11 30.33s-74.107-13.58-74.107-30.33 33.177-30.32 74.107-30.32 74.11 13.57 74.11 30.32" fill="#f58611"/></g>
  <g id="change1_47"><path d="m161.72 168.49c-33.77 0-61.24 11.24-61.24 25.06s27.47 25.06 61.24 25.06 61.25-11.24 61.25-25.06-27.48-25.06-61.25-25.06m0 51.45c-35.56 0-64.486-11.84-64.486-26.39s28.926-26.39 64.486-26.39 64.49 11.84 64.49 26.39-28.93 26.39-64.49 26.39" fill="#f9b42a"/></g>
  <g id="change1_48"><path d="m173.55 200.71c-0.27 1.2-1.93 2.06-4.9 2.57-0.13-2.32-0.29-4.63-0.46-6.92 3.55 1 5.73 2.74 5.36 4.35m-21.58-13.87c-0.31-0.2-0.78-0.51 0.28-1.2 0.6-0.39 1.48-0.76 2.53-1.09 0.07 1.21 0.15 2.41 0.24 3.61-1.21-0.36-2.24-0.79-3.05-1.32m21.82 4.89c-1.98-0.47-4.02-0.85-6.05-1.19-0.18-2.38-0.35-4.79-0.47-7.2 1.17 0.21 1.94 0.59 2.44 1.18 1.15 1.33 4.73 2.04 8 1.57s4.99-1.93 3.85-3.27c-2.29-2.68-7.57-4.41-14.49-4.77-0.02-0.79-0.03-1.58-0.03-2.37 0-1.41-2.81-2.56-6.27-2.56-3.47 0-6.27 1.15-6.27 2.56 0 1.03 0.02 2.07 0.04 3.1-5.33 0.86-10.13 2.33-12.9 4.13-3.35 2.18-3.45 4.6-0.29 6.66 3.66 2.39 8.92 3.61 14.11 4.51 0.23 2.94 0.46 5.94 0.63 8.94-0.78-0.15-1.52-0.32-2.2-0.51-2.66-0.76-4.02-1.73-4.04-2.89-0.02-1.41-2.83-2.55-6.27-2.55h-0.04c-3.47 0.01-6.25 1.16-6.23 2.58 0.05 2.84 3.39 5.35 9.4 7.07 2.85 0.81 6.15 1.39 9.61 1.74 0.02 0.99 0.04 1.98 0.04 2.96 0 1.42 2.8 2.57 6.27 2.57 3.46 0 6.27-1.15 6.27-2.57 0-0.94-0.01-1.88-0.04-2.82 1.19-0.1 2.34-0.22 3.45-0.39 7.98-1.17 12.99-3.73 13.73-7.02 0.84-3.7-4.09-7.5-12.25-9.46" fill="#f9b42a"/></g>
  <g id="change3_16"><path d="m161.81 222.29c-23.12 0-43.64-4.56-56.49-11.61 3.81 0.81 7.81 1.47 11.98 1.98 11.57 4.51 27.22 7.28 44.42 7.28 35.56 0 64.49-11.84 64.49-26.39 0-8.46-9.78-16-24.96-20.83-2-1.74-4.42-3.38-7.2-4.9 22.69 4.79 38.21 14.47 38.21 25.64 0 15.92-31.54 28.83-70.45 28.83m-0.09-3.68c-14.11 0-27.11-1.96-37.48-5.25 4.31 0.34 8.77 0.52 13.32 0.52 6.83 0 13.43-0.4 19.68-1.15 1.09 0.75 3.1 1.26 5.39 1.26 3.46 0 6.27-1.15 6.27-2.57v-0.55c23.18-4.72 39.11-14.51 39.11-25.82 0-3.37-1.42-6.61-4.02-9.62 11.69 4.57 18.98 11 18.98 18.12 0 13.82-27.48 25.06-61.25 25.06" fill="#f7980f"/></g>
  <g id="change4_22"><path d="m161.72 219.94c-17.2 0-32.85-2.77-44.42-7.28 2.27 0.28 4.58 0.52 6.94 0.7 10.37 3.29 23.37 5.25 37.48 5.25 33.77 0 61.25-11.24 61.25-25.06 0-7.12-7.29-13.55-18.98-18.12-0.8-0.92-1.71-1.83-2.74-2.71 15.18 4.83 24.96 12.37 24.96 20.83 0 14.55-28.93 26.39-64.49 26.39" fill="#fac03d"/></g>
  <g id="change4_23"><path d="m162.63 213.99c-2.29 0-4.3-0.51-5.39-1.26 4.05-0.48 7.94-1.1 11.66-1.86v0.55c0 1.42-2.81 2.57-6.27 2.57" fill="#fac03d"/></g>
  <g id="change5_2"><path d="m105.94 194.37h-0.3v-0.42c0.01-0.29-0.05-0.69 0.04-1.21 0.03-0.26 0.06-0.54 0.1-0.86 0.08-0.31 0.16-0.65 0.25-1 0.22-0.72 0.53-1.53 1.01-2.4 0.23-0.44 0.53-0.89 0.83-1.36 0.36-0.46 0.67-0.94 1.12-1.42 0.22-0.24 0.44-0.49 0.66-0.73 0.23-0.25 0.5-0.49 0.76-0.74 0.49-0.5 1.13-0.99 1.72-1.49 1.29-0.99 2.76-1.99 4.43-2.95 1.7-0.96 3.57-1.89 5.6-2.76 2.05-0.87 4.25-1.67 6.52-2.42 2.29-0.73 4.69-1.38 7.11-1.93 1.25-0.25 2.43-0.53 3.67-0.73 0.62-0.11 1.22-0.22 1.83-0.32 0.61-0.09 1.21-0.18 1.81-0.27 1.19-0.18 2.39-0.31 3.52-0.46 1.17-0.11 2.28-0.24 3.36-0.33 2.17-0.18 4.18-0.28 5.95-0.34 0.89-0.02 1.73-0.04 2.5-0.06h2.12 0.24c0.54 0 1.03 0.01 1.46 0.03 0.5 0.01 0.91 0.02 1.26 0.03 0.68 0.02 1.04 0.04 1.04 0.04v0.12s-0.36 0.02-1.03 0.06c-0.68 0.04-1.66 0.06-2.9 0.16-0.62 0.03-1.3 0.08-2.05 0.13-0.73 0.06-1.53 0.12-2.39 0.19-0.85 0.07-1.74 0.17-2.68 0.26-0.95 0.08-1.92 0.22-2.95 0.33-1.01 0.12-2.05 0.27-3.14 0.41-1.06 0.18-2.18 0.32-3.29 0.52-2.24 0.37-4.52 0.84-6.85 1.34-2.31 0.52-4.65 1.09-6.93 1.73-2.27 0.66-4.44 1.4-6.5 2.19-2.03 0.81-3.92 1.67-5.64 2.57-1.71 0.91-3.22 1.85-4.56 2.79-1.28 0.96-2.43 1.9-3.34 2.84-0.5 0.45-0.85 0.92-1.27 1.36-0.33 0.45-0.69 0.89-0.97 1.31-0.57 0.85-0.97 1.63-1.27 2.34-0.14 0.35-0.26 0.68-0.37 0.99-0.08 0.31-0.15 0.59-0.22 0.84-0.16 0.51-0.15 0.92-0.21 1.2-0.03 0.27-0.05 0.42-0.05 0.42" fill="#f8a10d"/></g>
  <g id="change2_17"><path d="m309.61 267.91c0 32.35-26.22 58.57-58.57 58.57-32.36 0-58.58-26.22-58.58-58.57 0-32.36 26.22-58.58 58.58-58.58 32.35 0 58.57 26.22 58.57 58.58" fill="#f58611"/></g>
  <g id="change1_49"><path d="m251.04 219.5c-26.7 0-48.42 21.71-48.42 48.41 0 26.69 21.72 48.41 48.42 48.41 26.69 0 48.41-21.72 48.41-48.41 0-26.7-21.72-48.41-48.41-48.41m0 99.38c-28.11 0-50.98-22.86-50.98-50.97s22.87-50.98 50.98-50.98c28.1 0 50.97 22.87 50.97 50.98s-22.87 50.97-50.97 50.97" fill="#f9b42a"/></g>
  <g id="change1_50"><path d="m260.39 281.74c-0.22 2.31-1.53 3.97-3.88 4.96-0.1-4.49-0.22-8.95-0.37-13.38 2.81 1.94 4.54 5.3 4.25 8.42m-17.06-26.79c-0.25-0.4-0.62-0.99 0.22-2.33 0.47-0.75 1.17-1.46 2-2.1 0.06 2.33 0.12 4.66 0.18 6.98-0.95-0.71-1.77-1.54-2.4-2.55m17.24 9.44c-1.56-0.91-3.18-1.64-4.78-2.3-0.14-4.61-0.27-9.26-0.38-13.92 0.93 0.41 1.54 1.14 1.94 2.28 0.91 2.58 3.74 3.94 6.32 3.04s3.95-3.73 3.04-6.31c-1.81-5.19-5.98-8.53-11.45-9.22-0.01-1.53-0.02-3.05-0.02-4.57 0-2.74-2.22-4.96-4.96-4.96s-4.96 2.22-4.96 4.96c0 1.99 0.02 3.99 0.04 5.99-4.22 1.64-8.01 4.48-10.2 7.97-2.64 4.2-2.73 8.89-0.23 12.87 2.89 4.61 7.05 6.96 11.16 8.7 0.18 5.69 0.36 11.48 0.5 17.28-0.62-0.29-1.21-0.61-1.74-0.99-2.11-1.47-3.19-3.35-3.2-5.59-0.02-2.72-2.23-4.92-4.95-4.92h-0.04c-2.73 0.02-4.94 2.25-4.92 4.99 0.03 5.48 2.67 10.33 7.43 13.65 2.25 1.57 4.86 2.7 7.59 3.36 0.02 1.91 0.03 3.82 0.03 5.73 0 2.73 2.22 4.95 4.96 4.95s4.96-2.22 4.96-4.95c0-1.82-0.01-3.64-0.03-5.46 0.93-0.18 1.85-0.43 2.73-0.74 6.3-2.28 10.26-7.22 10.85-13.57 0.66-7.14-3.23-14.48-9.69-18.27" fill="#f9b42a"/></g>
  <g id="change3_17"><path d="m251.11 323.41c-18.28 0-34.5-8.8-44.65-22.41 3 1.55 6.17 2.84 9.46 3.82 9.15 8.71 21.52 14.06 35.12 14.06 28.1 0 50.97-22.86 50.97-50.97 0-16.34-7.73-30.91-19.72-40.25-1.59-3.35-3.51-6.52-5.7-9.46 17.93 9.25 30.2 27.96 30.2 49.53 0 30.75-24.93 55.68-55.68 55.68m-0.07-7.09c-11.16 0-21.44-3.79-29.63-10.15 3.41 0.65 6.93 0.99 10.53 0.99 5.4 0 10.61-0.77 15.55-2.2 0.87 1.45 2.45 2.42 4.26 2.42 2.74 0 4.96-2.22 4.96-4.95v-1.06c18.32-9.12 30.91-28.03 30.91-49.89 0-6.51-1.12-12.76-3.17-18.57 9.23 8.82 15 21.25 15 35 0 26.69-21.72 48.41-48.41 48.41" fill="#f7980f"/></g>
  <g id="change4_24"><path d="m251.04 318.88c-13.6 0-25.97-5.35-35.12-14.06 1.79 0.54 3.63 0.99 5.49 1.35 8.19 6.36 18.47 10.15 29.63 10.15 26.69 0 48.41-21.72 48.41-48.41 0-13.75-5.77-26.18-15-35-0.63-1.79-1.36-3.55-2.16-5.25 11.99 9.34 19.72 23.91 19.72 40.25 0 28.11-22.87 50.97-50.97 50.97" fill="#fac03d"/></g>
  <g id="change4_25"><path d="m251.75 307.38c-1.81 0-3.39-0.97-4.26-2.42 3.2-0.92 6.28-2.14 9.22-3.59v1.06c0 2.73-2.22 4.95-4.96 4.95" fill="#fac03d"/></g>
  <g id="change5_3"><path d="m206.94 269.49l-0.23-0.01s-0.01-0.28-0.01-0.82c0.01-0.53-0.04-1.31 0.03-2.32 0.03-0.5 0.06-1.05 0.08-1.66 0.07-0.6 0.13-1.25 0.2-1.95 0.17-1.39 0.43-2.94 0.8-4.63 0.18-0.85 0.42-1.71 0.65-2.62 0.29-0.88 0.54-1.82 0.9-2.74 0.16-0.47 0.34-0.94 0.51-1.42 0.19-0.47 0.4-0.94 0.61-1.42 0.38-0.97 0.89-1.91 1.36-2.88 1.02-1.92 2.18-3.85 3.5-5.71 1.34-1.85 2.82-3.64 4.43-5.33 1.61-1.67 3.35-3.22 5.15-4.66 1.81-1.42 3.7-2.66 5.62-3.74 0.98-0.48 1.92-1.02 2.9-1.42 0.49-0.2 0.96-0.42 1.44-0.61 0.48-0.17 0.96-0.35 1.43-0.52 0.94-0.35 1.89-0.6 2.79-0.89 0.92-0.21 1.8-0.45 2.65-0.62 1.72-0.34 3.3-0.54 4.71-0.67 0.7-0.04 1.36-0.08 1.97-0.12 0.61 0.01 1.17 0.01 1.68 0.01h0.2c0.42 0 0.8 0.02 1.14 0.05 0.39 0.02 0.73 0.05 1 0.07 0.53 0.04 0.82 0.07 0.82 0.07v0.23s-0.29 0.04-0.82 0.11c-0.53 0.08-1.31 0.13-2.29 0.31-0.48 0.07-1.03 0.16-1.61 0.26-0.59 0.11-1.22 0.23-1.89 0.37-0.68 0.13-1.38 0.32-2.13 0.49-0.74 0.17-1.51 0.43-2.32 0.64-0.81 0.23-1.63 0.53-2.48 0.8-0.85 0.33-1.73 0.62-2.61 1-1.77 0.73-3.57 1.62-5.42 2.58-1.82 1.01-3.67 2.11-5.47 3.36-1.79 1.27-3.51 2.7-5.14 4.23-1.6 1.56-3.1 3.23-4.46 4.96-1.34 1.75-2.54 3.57-3.6 5.39-1.01 1.85-1.92 3.68-2.64 5.47-0.39 0.89-0.68 1.79-1 2.64-0.27 0.87-0.55 1.71-0.77 2.53-0.45 1.64-0.77 3.16-1.01 4.52-0.1 0.68-0.2 1.32-0.29 1.91-0.06 0.6-0.12 1.14-0.18 1.63-0.12 0.99-0.11 1.78-0.16 2.31-0.03 0.53-0.04 0.82-0.04 0.82" fill="#f8a10d"/></g>
 </g>
</svg>