<?xml version="1.0" encoding="UTF-8" standalone="no"?><svg xmlns="http://www.w3.org/2000/svg" xmlns:xlink="http://www.w3.org/1999/xlink" clip-rule="evenodd" fill="#ffffff" fill-rule="evenodd" height="1875.9" preserveAspectRatio="xMidYMid meet" stroke-linejoin="round" stroke-miterlimit="2" version="1" viewBox="1032.9 569.7 920.5 1875.9" width="920.5" zoomAndPan="magnify"><path d="M0 0H3000V3000H0z" fill="none"/><g><g id="change1_1"><path d="M1149.98,937.848C1144.96,943.819 1140.1,949.83 1135.39,955.881C1130.44,962.232 1121.27,963.373 1114.92,958.427C1108.57,953.482 1107.43,944.312 1112.38,937.961C1118.32,930.326 1124.49,922.75 1130.9,915.237L1102.35,915.662C1094.3,915.782 1087.67,909.345 1087.55,901.297C1087.43,893.249 1093.87,886.618 1101.92,886.499L1178.36,885.361L1179.5,961.807C1179.62,969.855 1173.18,976.486 1165.14,976.606C1157.09,976.726 1150.46,970.289 1150.34,962.241L1149.98,937.848ZM281.62,2759C277.001,2761.26 271.324,2761.01 266.82,2757.85C260.388,2753.34 259.687,2748.22 259.507,2745.72C259.088,2739.9 261.058,2734.04 268.758,2730.78C270.381,2730.1 273.505,2729.28 277.738,2729.39C282.603,2729.52 292.206,2731.3 296.61,2730.71C306.909,2729.35 317.175,2727.66 327.413,2725.86C335.34,2724.47 342.905,2729.78 344.294,2737.71C345.683,2745.64 340.374,2753.2 332.446,2754.59C321.809,2756.45 311.141,2758.21 300.439,2759.63C296.66,2760.13 287.429,2759.49 281.62,2759ZM390.644,2741.94C382.863,2744 374.874,2739.36 372.815,2731.58C370.756,2723.79 375.401,2715.8 383.182,2713.75C401.613,2708.87 419.836,2703.21 437.854,2696.93C445.455,2694.28 453.776,2698.3 456.425,2705.9C459.074,2713.5 455.054,2721.82 447.454,2724.47C428.732,2730.99 409.795,2736.87 390.644,2741.94ZM502.719,2703.23C495.292,2706.33 486.744,2702.82 483.641,2695.4C480.538,2687.97 484.048,2679.42 491.474,2676.32C503.178,2671.43 514.793,2666.34 526.318,2661.09C532.243,2658.4 538.138,2655.64 544,2652.81C551.25,2649.31 559.974,2652.36 563.469,2659.61C566.965,2666.86 563.917,2675.59 556.667,2679.08C550.61,2682 544.52,2684.85 538.399,2687.64C526.597,2693.01 514.703,2698.22 502.719,2703.23ZM609.194,2651.58C602.191,2655.55 593.285,2653.09 589.317,2646.09C585.348,2639.08 587.812,2630.18 594.815,2626.21C611.462,2616.78 627.775,2606.79 643.704,2596.27C650.42,2591.83 659.474,2593.69 663.91,2600.4C668.346,2607.12 666.495,2616.17 659.779,2620.61C643.297,2631.49 626.418,2641.82 609.194,2651.58ZM708.125,2586.18C701.738,2591.08 692.576,2589.87 687.678,2583.49C682.78,2577.1 683.988,2567.94 690.374,2563.04C705.538,2551.41 720.265,2539.25 734.505,2526.57C740.515,2521.21 749.741,2521.75 755.094,2527.76C760.447,2533.77 759.913,2542.99 753.902,2548.35C739.132,2561.5 723.855,2574.12 708.125,2586.18ZM796.755,2507.17C791.17,2512.96 781.931,2513.13 776.135,2507.55C770.339,2501.96 770.168,2492.72 775.753,2486.93C788.979,2473.2 801.665,2458.97 813.76,2444.24C818.868,2438.01 828.065,2437.11 834.285,2442.22C840.506,2447.33 841.41,2456.52 836.303,2462.74C823.718,2478.07 810.518,2492.89 796.755,2507.17ZM872.152,2415.23C867.575,2421.85 858.484,2423.51 851.863,2418.93C845.243,2414.36 843.583,2405.26 848.16,2398.64C858.957,2383.03 869.119,2366.93 878.596,2350.36C882.593,2343.38 891.51,2340.95 898.496,2344.95C905.482,2348.94 907.909,2357.86 903.913,2364.85C894.023,2382.14 883.418,2398.93 872.152,2415.23ZM931.224,2311.89C927.852,2319.2 919.18,2322.39 911.872,2319.02C904.564,2315.65 901.369,2306.97 904.741,2299.67C906.966,2294.85 909.135,2289.99 911.247,2285.1C916.71,2272.45 921.753,2259.7 926.405,2246.86C929.146,2239.29 937.515,2235.37 945.083,2238.11C952.65,2240.86 956.569,2249.22 953.828,2256.79C948.978,2270.18 943.72,2283.47 938.024,2296.66C935.816,2301.77 933.549,2306.85 931.224,2311.89ZM971.844,2200.13C969.703,2207.89 961.665,2212.45 953.906,2210.31C946.148,2208.16 941.588,2200.13 943.729,2192.37C948.816,2173.94 953.206,2155.36 956.983,2136.63C958.573,2128.74 966.271,2123.62 974.161,2125.22C982.051,2126.81 987.165,2134.5 985.574,2142.39C981.662,2161.79 977.113,2181.05 971.844,2200.13ZM995.444,2084C994.341,2091.97 986.973,2097.55 979,2096.45C971.027,2095.35 965.45,2087.98 966.552,2080.01C969.174,2061.05 971.263,2041.97 972.9,2022.79C973.584,2014.77 980.651,2008.82 988.67,2009.5C996.69,2010.18 1002.64,2017.25 1001.96,2025.27C1000.28,2044.96 998.135,2064.54 995.444,2084ZM1005.66,1966.43C1005.32,1974.47 998.52,1980.73 990.479,1980.39C982.437,1980.05 976.182,1973.25 976.519,1965.21C977.325,1946.01 977.762,1926.73 977.907,1907.39C977.968,1899.35 984.551,1892.86 992.6,1892.92C1000.65,1892.98 1007.13,1899.57 1007.07,1907.61C1006.93,1927.29 1006.48,1946.9 1005.66,1966.43ZM1006.71,1848.9C1006.86,1856.95 1000.45,1863.61 992.399,1863.75C984.351,1863.9 977.696,1857.49 977.547,1849.44C977.187,1830.13 976.615,1810.78 975.902,1791.4C975.606,1783.36 981.895,1776.59 989.939,1776.29C997.982,1775.99 1004.75,1782.28 1005.05,1790.33C1005.77,1809.88 1006.35,1829.41 1006.71,1848.9ZM1002.55,1731.89C1002.93,1739.93 996.716,1746.77 988.676,1747.15C980.636,1747.53 973.8,1741.32 973.419,1733.28C972.499,1713.87 971.512,1694.46 970.532,1675.06C970.126,1667.02 976.323,1660.16 984.361,1659.76C992.4,1659.35 999.256,1665.55 999.662,1673.59C1000.64,1693.02 1001.63,1712.46 1002.55,1731.89ZM996.81,1615.39C997.181,1623.43 990.955,1630.26 982.915,1630.63C974.875,1631 968.046,1624.78 967.674,1616.73C966.771,1597.21 965.949,1577.72 965.282,1558.28C965.006,1550.23 971.312,1543.48 979.356,1543.2C987.4,1542.93 994.155,1549.23 994.431,1557.28C995.095,1576.6 995.912,1595.98 996.81,1615.39ZM992.974,1499.25C993.091,1507.3 986.652,1513.93 978.604,1514.05C970.556,1514.16 963.927,1507.72 963.81,1499.68C963.524,1480.02 963.476,1460.43 963.741,1440.93C963.851,1432.88 970.474,1426.44 978.522,1426.55C986.57,1426.66 993.015,1433.28 992.905,1441.33C992.643,1460.55 992.692,1479.87 992.974,1499.25ZM994.72,1383.57C994.312,1391.61 987.454,1397.8 979.416,1397.4C971.377,1396.99 965.183,1390.13 965.591,1382.09C966.594,1362.35 968.007,1342.73 969.913,1323.24C970.696,1315.23 977.835,1309.36 985.846,1310.14C993.857,1310.93 999.724,1318.07 998.941,1326.08C997.079,1345.12 995.7,1364.29 994.72,1383.57ZM1006.11,1269.03C1004.87,1276.98 997.412,1282.44 989.459,1281.2C981.506,1279.96 976.053,1272.5 977.29,1264.55C980.337,1244.95 983.983,1225.52 988.313,1206.28C990.08,1198.43 997.89,1193.49 1005.74,1195.26C1013.6,1197.02 1018.53,1204.83 1016.77,1212.68C1012.58,1231.29 1009.06,1250.08 1006.11,1269.03ZM1031.42,1157.39C1029.05,1165.09 1020.89,1169.41 1013.19,1167.05C1005.5,1164.68 1001.17,1156.52 1003.54,1148.83C1009.36,1129.89 1015.95,1111.17 1023.41,1092.68C1026.42,1085.22 1034.93,1081.6 1042.39,1084.61C1049.86,1087.62 1053.47,1096.13 1050.46,1103.59C1043.31,1121.31 1036.99,1139.25 1031.42,1157.39ZM1074.14,1051.76C1070.47,1058.92 1061.67,1061.75 1054.51,1058.07C1047.35,1054.39 1044.52,1045.59 1048.2,1038.43C1057.19,1020.94 1067.08,1003.68 1077.93,986.687C1082.27,979.904 1091.29,977.916 1098.08,982.25C1104.86,986.583 1106.85,995.608 1102.51,1002.39C1092.15,1018.61 1082.72,1035.07 1074.14,1051.76Z" transform="translate(773.792 -315.635)"/></g></g></svg>