<?xml version="1.0" encoding="UTF-8" standalone="no"?><svg xmlns="http://www.w3.org/2000/svg" xmlns:xlink="http://www.w3.org/1999/xlink" fill="#000000" height="106.4" preserveAspectRatio="xMidYMid meet" version="1" viewBox="37.7 196.9 423.1 106.4" width="423.1" zoomAndPan="magnify"><g><g id="change1_2"><path d="M40.43,251.37c-0.29,0-0.58-0.05-0.86-0.16c-1.26-0.48-1.9-1.89-1.43-3.15c1.21-3.2,2.72-6.3,4.49-9.2 c0.7-1.15,2.21-1.52,3.36-0.81c1.15,0.7,1.52,2.21,0.81,3.36c-1.61,2.64-2.99,5.45-4.09,8.37 C42.35,250.77,41.42,251.37,40.43,251.37z" fill="#ffffff"/></g><g id="change1_3"><path d="M311.63,303.29c-1.32,0-2.41-1.05-2.44-2.38c-0.03-1.35,1.03-2.47,2.38-2.51 c6.04-0.15,12.19-0.72,18.81-1.73c1.34-0.21,2.58,0.71,2.79,2.05c0.2,1.34-0.72,2.58-2.05,2.79c-6.83,1.04-13.18,1.62-19.42,1.78 C311.67,303.29,311.65,303.29,311.63,303.29z M292.47,302.24c-0.12,0-0.24-0.01-0.36-0.03c-6.54-0.96-12.96-2.57-19.08-4.77 c-1.27-0.46-1.93-1.86-1.47-3.13c0.46-1.27,1.86-1.93,3.13-1.47c5.82,2.09,11.93,3.62,18.14,4.54c1.34,0.2,2.26,1.44,2.06,2.78 C294.71,301.37,293.66,302.24,292.47,302.24z M349.58,297.77c-1.1,0-2.1-0.75-2.38-1.87c-0.32-1.31,0.49-2.64,1.8-2.95 c5.56-1.34,11.41-2.93,18.42-5c1.3-0.38,2.66,0.36,3.04,1.65c0.38,1.3-0.36,2.66-1.65,3.04c-7.09,2.09-13.02,3.7-18.66,5.06 C349.96,297.75,349.77,297.77,349.58,297.77z M256.61,289.19c-0.45,0-0.9-0.12-1.31-0.38c-5.78-3.68-10.89-7.96-15.19-12.71 c-0.91-1-0.83-2.55,0.18-3.46c1-0.91,2.55-0.83,3.46,0.18c4,4.43,8.77,8.42,14.18,11.87c1.14,0.73,1.48,2.24,0.75,3.38 C258.21,288.79,257.42,289.19,256.61,289.19z M386.49,287.12c-1.04,0-2.01-0.67-2.34-1.72c-0.4-1.29,0.32-2.66,1.61-3.06 l18.35-5.7c1.29-0.4,2.66,0.32,3.06,1.61c0.4,1.29-0.32,2.66-1.61,3.06l-18.35,5.7C386.98,287.08,386.73,287.12,386.49,287.12z M231.5,260.88c-0.94,0-1.84-0.55-2.24-1.47l-0.33-0.76c-1.93-4.58-3.29-9.38-4.6-14.03c-0.36-1.26-0.71-2.52-1.08-3.77 c-0.38-1.3,0.37-2.66,1.66-3.03c1.3-0.38,2.66,0.37,3.03,1.66c0.37,1.27,0.73,2.54,1.09,3.81c1.27,4.51,2.59,9.16,4.4,13.46 l0.3,0.7c0.54,1.24-0.03,2.68-1.26,3.22C232.16,260.81,231.83,260.88,231.5,260.88z M57.41,228.29c-0.71,0-1.42-0.31-1.9-0.91 c-0.85-1.05-0.69-2.59,0.36-3.44c4.77-3.87,10.43-7.35,16.81-10.37c1.22-0.57,2.68-0.05,3.26,1.17c0.58,1.22,0.05,2.68-1.17,3.26 c-6.03,2.84-11.35,6.12-15.82,9.74C58.5,228.11,57.95,228.29,57.41,228.29z M218.11,225.01c-0.79,0-1.57-0.38-2.04-1.09 c-3.31-4.99-7.68-9.19-12.98-12.48c-1.15-0.71-1.5-2.22-0.79-3.37c0.71-1.15,2.22-1.5,3.37-0.79c5.91,3.66,10.78,8.35,14.48,13.93 c0.75,1.13,0.44,2.64-0.69,3.39C219.05,224.88,218.58,225.01,218.11,225.01z M91.7,211.5c-1.06,0-2.03-0.69-2.35-1.75 c-0.38-1.3,0.36-2.66,1.65-3.04c5.8-1.72,11.98-3.2,18.91-4.54c1.33-0.26,2.61,0.61,2.87,1.94c0.26,1.33-0.61,2.61-1.94,2.87 c-6.77,1.31-12.8,2.76-18.45,4.43C92.16,211.47,91.93,211.5,91.7,211.5z M186.66,204.59c-0.19,0-0.39-0.02-0.59-0.07 c-5.53-1.37-11.77-2.26-18.54-2.63c-1.35-0.07-2.38-1.23-2.31-2.58c0.07-1.35,1.25-2.39,2.58-2.31 c7.08,0.39,13.62,1.32,19.45,2.76c1.31,0.33,2.11,1.65,1.79,2.96C188.76,203.84,187.76,204.59,186.66,204.59z M129.35,203.96 c-1.21,0-2.26-0.89-2.42-2.12c-0.18-1.34,0.76-2.57,2.1-2.75l0.51-0.07c6.78-0.9,12.93-1.52,18.78-1.87 c1.35-0.07,2.51,0.94,2.59,2.29c0.08,1.35-0.94,2.51-2.29,2.59c-5.73,0.35-11.76,0.95-18.44,1.84l-0.5,0.07 C129.56,203.96,129.45,203.96,129.35,203.96z" fill="#ffffff"/></g><g id="change1_4"><path d="M423.26,275.7c-1.04,0-2.01-0.67-2.34-1.72c-0.4-1.29,0.32-2.66,1.61-3.06l9.34-2.9 c1.29-0.4,2.66,0.32,3.06,1.61c0.4,1.29-0.32,2.66-1.61,3.06l-9.34,2.9C423.75,275.66,423.51,275.7,423.26,275.7z" fill="#ffffff"/></g><g><g id="change1_1"><path d="M460.81,261.58c-11.74,9.05-25.59,22.56-33.03,34.63l1.13-24.72l-14.94-19.72 C426.94,257.5,446.01,260.79,460.81,261.58z" fill="#ffffff"/></g></g></g></svg>