<?xml version="1.0" encoding="UTF-8" standalone="no"?><svg xmlns="http://www.w3.org/2000/svg" xmlns:xlink="http://www.w3.org/1999/xlink" fill="#000000" height="284.9" preserveAspectRatio="xMidYMid meet" version="1" viewBox="0.0 0.0 500.0 284.9" width="500" zoomAndPan="magnify"><g id="change1_1"><path d="M500,18.3l-52.6-6l5.1,11.8l-21.9,9.5c-19.3,8.4-31.7,27.4-31.7,48.5c0,8.2,1.9,16.3,5.6,23.6l6.2,12.3 c1.6,3.2,2.5,6.8,2.5,10.4c0,12.7-10.3,23-23,23c-9.6,0-18.3-6.1-21.6-15.1L330.4,32.8C323.1,13.2,304.2,0,283.3,0 c-27.7,0-50.2,22.5-50.2,50.2c0,7.8,1.9,15.6,5.4,22.6l67.3,132.7c1.3,3.1,2,6.4,2,9.7c0,13.9-11.3,25.2-25.2,25.2 c-9.9,0-18.9-5.8-23-14.8l-38.8-105.2l-0.3-0.7c-7.6-17.5-24.9-28.8-44-28.8c-26.5,0-48,21.5-48,48c0,6.6,1.3,13.1,4,19.1l33.7,66.5 c1.6,3.2,2.5,6.8,2.5,10.4c0,12.7-10.3,23-23,23c-9.6,0-18.3-6.1-21.6-15.1l-4.8-12.9c-7.6-20.6-27.5-34.5-49.5-34.5 c-7.3,0-14.4,1.5-21,4.4L0,221v29.6l59.7-26c3.2-1.4,6.7-2.1,10.2-2.1c10.7,0,20.3,6.7,24,16.7l4.8,12.9 c7.2,19.6,26.1,32.8,47.1,32.8c27.7,0,50.2-22.5,50.2-50.2c0-7.8-1.9-15.6-5.4-22.6l-33.2-65.4c-1.1-2.5-1.6-5.2-1.6-8 c0-11.5,9.3-20.8,20.8-20.8c8.2,0,15.6,4.8,19,12.2l38.8,105.2l0.3,0.7c8.3,19.1,27.2,31.5,48,31.5c28.9,0,52.4-23.5,52.4-52.4 c0-7.2-1.5-14.3-4.3-20.9L262.7,60.5c-1.6-3.2-2.5-6.8-2.5-10.4c0-12.7,10.3-23,23-23c9.6,0,18.3,6.1,21.6,15.1l38.2,103.6 c7.2,19.6,26.1,32.8,47.1,32.8c27.7,0,50.2-22.5,50.2-50.2c0-7.8-1.9-15.6-5.4-22.6l-6.2-12.3c-1.8-3.5-2.7-7.5-2.7-11.5 c0-10.2,6.1-19.5,15.4-23.6l21.9-9.5l5.2,11.8L500,18.3z" fill="#f2f2f2"/></g><g id="change2_1"><path d="M451,15l44.8,5.1L469,56.4L464.5,46l-24,10.4c-10.2,4.4-16.8,14.5-16.8,25.6c0,4.3,1,8.6,2.9,12.5l6.2,12.3 c3.4,6.6,5.1,14.1,5.1,21.6c0,26.4-21.5,47.9-47.9,47.9c-20,0-38-12.6-44.9-31.3L307,41.4c-3.6-9.9-13.2-16.5-23.7-16.5 c-13.9,0-25.3,11.3-25.3,25.3c0,3.9,0.9,7.9,2.7,11.4l67.7,133.7c2.8,6.3,4.2,13.1,4.2,20c0,27.6-22.5,50.1-50.1,50.1 c-19.9,0-38-11.8-45.9-30.1l-0.2-0.6l-38.8-105.3c-3.7-8.3-12-13.6-21.1-13.6c-12.7,0-23.1,10.4-23.1,23.1c0,3.1,0.6,6.1,1.8,8.9 l33.2,65.5c3.4,6.7,5.2,14.1,5.2,21.6c0,26.4-21.5,47.9-47.9,47.9c-20,0-38-12.6-44.9-31.3L96,238.5c-4-10.9-14.5-18.2-26.1-18.2 c-3.8,0-7.6,0.8-11.1,2.3L0,248.2v-24.7l49.7-21.6c6.4-2.8,13.2-4.2,20.1-4.2c21,0,40.1,13.3,47.3,33l4.8,12.9 c3.6,9.9,13.2,16.5,23.7,16.5c13.9,0,25.3-11.3,25.3-25.3c0-3.9-0.9-7.9-2.7-11.4l-33.6-66.4c-2.5-5.8-3.8-11.9-3.8-18.2 c0-25.2,20.5-45.7,45.7-45.7c18.2,0,34.7,10.8,41.9,27.5l0.2,0.6l38.8,105.3c4.4,9.9,14.2,16.2,25.1,16.2 c15.1,0,27.5-12.3,27.5-27.5c0-3.7-0.7-7.3-2.2-10.7L240.5,71.8c-3.4-6.7-5.2-14.1-5.2-21.6c0-26.4,21.5-47.9,47.9-47.9 c20,0,38,12.6,44.9,31.3l38.2,103.6c3.6,9.9,13.2,16.5,23.7,16.5c13.9,0,25.3-11.3,25.3-25.3c0-3.9-0.9-7.9-2.7-11.4l0,0l-6.2-12.3 c-3.5-7-5.3-14.8-5.3-22.6c0-20.1,11.9-38.3,30.3-46.4l24-10.4L451,15z" fill="#1b9df0"/></g><g id="change3_1"><path d="M288.2,252.9l0.2,1.3c-1.5,0.2-3.1,0.4-4.6,0.4l0-1.4C285.2,253.3,286.7,253.1,288.2,252.9z M280.1,126.3 l2,4l1.2-0.6l-2-4L280.1,126.3z M288.3,142.4l2,4l1.2-0.6l-2-4L288.3,142.4z M274.7,253.9c1.5,0.3,3,0.5,4.6,0.7l0.1-1.4 c-1.5-0.1-2.9-0.3-4.4-0.6L274.7,253.9z M267.8,102l2,4l1.2-0.6l-2-4L267.8,102z M273.1,109.5l-1.2,0.6l2,4l1.2-0.6L273.1,109.5z M265.9,251c1.4,0.6,2.8,1.2,4.3,1.7l0.4-1.3c-1.4-0.5-2.8-1-4.1-1.6L265.9,251z M264.9,93.4l-1.2,0.6l2,4l1.2-0.6L264.9,93.4z M295.6,153.9l-2-4l-1.2,0.6l2,4L295.6,153.9z M304.6,174.7l2,4l1.2-0.6l-2-4L304.6,174.7z M316.1,194.2l-2-4l-1.2,0.6l2,4 L316.1,194.2z M292.5,252l0.4,1.3c1.5-0.4,2.9-0.9,4.4-1.5l-0.5-1.3C295.4,251.1,294,251.6,292.5,252z M313.9,236.9l1.1,0.8 c0.9-1.3,1.7-2.6,2.4-3.9l-1.2-0.6C315.5,234.4,314.7,235.7,313.9,236.9z M308,243.6l0.9,1c1.1-1,2.2-2.1,3.2-3.3l-1-0.9 C310.1,241.5,309.1,242.6,308,243.6z M296.5,158.5l2,4l1.2-0.6l-2-4L296.5,158.5z M303.8,170l-2-4l-1.2,0.6l2,4L303.8,170z M300.8,248.7l0.6,1.2c1.3-0.7,2.7-1.6,3.9-2.4l-0.8-1.1C303.3,247.2,302.1,248,300.8,248.7z M251.6,239.7c1,1.2,2,2.4,3.1,3.4l1-1 c-1-1-2-2.2-3-3.3L251.6,239.7z M243.6,223.4l1.6,4.2l1.3-0.5l-1.6-4.2L243.6,223.4z M234.2,197.9l1.6,4.2l1.3-0.5l-1.6-4.2 L234.2,197.9z M231,189.4l1.6,4.2l1.3-0.5l-1.6-4.2L231,189.4z M240.4,214.9l1.6,4.2l1.3-0.5l-1.6-4.2L240.4,214.9z M237.3,206.4 l1.6,4.2l1.3-0.5l-1.6-4.2L237.3,206.4z M3.2,233.7L0,235.1v1.5l3.8-1.6L3.2,233.7z M224.8,172.4l1.6,4.2l1.3-0.5l-1.6-4.2 L224.8,172.4z M227.9,180.9l1.6,4.2l1.3-0.5l-1.6-4.2L227.9,180.9z M218.5,155.5l1.6,4.2l1.3-0.5l-1.6-4.2L218.5,155.5z M256.7,77.2 l-1.2,0.6l2,4l1.2-0.6L256.7,77.2z M319.9,202.5c-0.3-1-0.7-2.1-1.2-3.1l-0.6-1.2l-1.2,0.6l0.6,1.1c0.4,1,0.8,2,1.1,3L319.9,202.5z M254.7,73.2l-2-4l-1.2,0.6l2,4L254.7,73.2z M258.1,246.2c1.2,0.9,2.5,1.8,3.8,2.6l0.7-1.2c-1.3-0.8-2.5-1.6-3.6-2.5L258.1,246.2z M247.4,52.3l-1.4,0.1c0.1,1.5,0.3,3.1,0.6,4.6l1.3-0.2C247.7,55.2,247.5,53.7,247.4,52.3z M246.8,231.9c0.6,1.4,1.4,2.7,2.2,4 l1.2-0.7c-0.8-1.3-1.5-2.6-2.1-3.9L246.8,231.9z M247.8,61.4c0.5,1.5,1,2.9,1.7,4.3l1.2-0.6c-0.6-1.3-1.2-2.7-1.6-4.1L247.8,61.4z M259.6,85.9l2,4l1.2-0.6l-2-4L259.6,85.9z M247.8,38.7l1.3,0.4c0.5-1.4,1-2.8,1.6-4.1l-1.2-0.6C248.9,35.8,248.3,37.3,247.8,38.7z M413.4,85.9L412,86c0.1,1.5,0.4,3,0.7,4.5l1.3-0.3C413.7,88.8,413.5,87.3,413.4,85.9z M413.5,77l-1.3-0.2c-0.2,1.5-0.3,3.1-0.3,4.6 l1.4,0C413.2,80,413.3,78.5,413.5,77z M413.4,155.8l0.9,1c1.2-1,2.3-2.1,3.3-3.2l-1-0.9C415.6,153.8,414.6,154.8,413.4,155.8z M406,160.7l0.6,1.2c1.4-0.7,2.7-1.5,4-2.3l-0.7-1.1C408.7,159.3,407.4,160,406,160.7z M321.8,211.5c-0.1-1.5-0.4-3-0.7-4.5 l-1.3,0.3c0.3,1.5,0.5,2.9,0.7,4.4L321.8,211.5z M379.7,164.3c1.5,0.4,3,0.8,4.5,1l0.2-1.3c-1.5-0.2-2.9-0.6-4.3-1L379.7,164.3z M397.7,163.6l0.3,1.3c1.5-0.3,3-0.7,4.4-1.2l-0.4-1.3C400.6,162.9,399.1,163.3,397.7,163.6z M390.1,164.4c-0.4,0-0.9,0-1.3,0l0,1.4 c0.4,0,0.8,0,1.2,0c1.1,0,2.3,0,3.4-0.1l-0.1-1.4C392.3,164.3,391.2,164.4,390.1,164.4z M420.9,106.8l-2-4l-1.2,0.6l2,4L420.9,106.8 z M436.1,45.3l0.5,1.2l4.1-1.8l-0.5-1.2L436.1,45.3z M444.4,41.7L445,43l4.1-1.8l-0.5-1.2L444.4,41.7z M428.2,49.9L429,51 c1.2-0.9,2.4-1.7,3.7-2.4l-0.7-1.2C430.7,48.1,429.4,49,428.2,49.9z M452.7,38.1l0.5,1.2l4.1-1.8l-0.5-1.2L452.7,38.1z M425.8,133.1 l1.3,0.1c0.2-1.5,0.3-2.2,0.3-4.5h-1.4C426.1,131,426,131.6,425.8,133.1z M423.4,111.7l-0.4-0.9l-1.2,0.6l0.4,0.9 c0.5,1,1,2.1,1.4,3.2l1.3-0.5C424.4,113.9,424,112.7,423.4,111.7z M423.6,141.5l1.3,0.5c0.6-1.4,1-2.9,1.4-4.4l-1.3-0.3 C424.6,138.7,424.2,140.1,423.6,141.5z M419.4,149.3l1.1,0.8c0.9-1.2,1.7-2.6,2.4-3.9l-1.2-0.6C421.1,146.8,420.3,148.1,419.4,149.3 z M371.3,160.6c1.3,0.8,2.7,1.5,4.1,2.1l0.5-1.2c-1.4-0.6-2.7-1.3-4-2L371.3,160.6z M326.3,63.1l1.6,4.2l1.3-0.5l-1.6-4.2 L326.3,63.1z M323.2,54.6l1.6,4.2l1.3-0.5l-1.6-4.2L323.2,54.6z M364,155c1.1,1.1,2.3,2.1,3.5,3l0.8-1.1c-1.2-0.9-2.3-1.9-3.3-2.9 L364,155z M332.6,80.1l1.6,4.2l1.3-0.5l-1.6-4.2L332.6,80.1z M320.1,46.1l1.6,4.2l1.3-0.5l-1.6-4.2L320.1,46.1z M335.7,88.6l1.6,4.2 l1.3-0.5l-1.6-4.2L335.7,88.6z M318,229.1l1.3,0.5c0.6-1.4,1-2.9,1.4-4.4l-1.3-0.3C319,226.3,318.6,227.7,318,229.1z M320.3,220.5 l1.3,0.2c0.2-1.5,0.3-3,0.4-4.6l-1.4,0C320.6,217.6,320.5,219.1,320.3,220.5z M329.5,71.6l1.6,4.2l1.3-0.5l-1.6-4.2L329.5,71.6z M355.8,139l-1.3,0.5l0.7,1.9c0.3,0.8,0.6,1.6,1,2.4l1.2-0.6c-0.3-0.8-0.6-1.5-0.9-2.3L355.8,139z M351.4,131l1.6,4.2l1.3-0.5 l-1.6-4.2L351.4,131z M358.3,147.8c0.8,1.3,1.7,2.6,2.6,3.8l1.1-0.8c-0.9-1.2-1.8-2.4-2.5-3.6L358.3,147.8z M338.8,97l1.6,4.2 l1.3-0.5l-1.6-4.2L338.8,97z M342,105.5l1.6,4.2l1.3-0.5l-1.6-4.2L342,105.5z M345.1,114l1.6,4.2l1.3-0.5l-1.6-4.2L345.1,114z M348.2,122.5l1.6,4.2l1.3-0.5l-1.6-4.2L348.2,122.5z M221.7,163.9l1.6,4.2l1.3-0.5l-1.6-4.2L221.7,163.9z M163.2,107.8l-0.5-1.2 c-1.4,0.6-2.8,1.3-4.1,2.1l0.7,1.2C160.6,109.1,161.9,108.4,163.2,107.8z M149.5,118.7l-1.1-0.8c-0.9,1.2-1.8,2.5-2.5,3.9l1.2,0.7 C147.8,121.1,148.6,119.9,149.5,118.7z M7.4,231.9l0.5,1.2l4.1-1.8l-0.5-1.2L7.4,231.9z M145.2,126.4l-1.3-0.5 c-0.6,1.4-1,2.9-1.4,4.4l1.3,0.3C144.2,129.2,144.6,127.8,145.2,126.4z M83.8,212.3c1.4,0.5,2.7,1.2,4,1.9l0.6-1.2 c-1.3-0.7-2.8-1.4-4.2-1.9L83.8,212.3z M248,43.4l-1.3-0.3c-0.3,1.5-0.5,3-0.6,4.6l1.4,0.1C247.6,46.4,247.7,44.9,248,43.4z M181.3,230.1l1.3-0.2c-0.2-1.5-0.5-3-0.9-4.5l-1.3,0.3C180.8,227.2,181.1,228.6,181.3,230.1z M176.5,106.1c1.4,0,2.7-0.4,4.1-0.3 l0.2-1.5c-1.4-0.2-2.8-0.5-4.2-0.5h-0.4l0,2.3H176.5z M66.4,209.8c1.5-0.1,3-0.2,4.4-0.1l0-1.4c-1.5,0-3.1,0-4.6,0.2L66.4,209.8z M255.4,27.5l-1.1-0.9c-1,1.2-1.9,2.4-2.7,3.7l1.1,0.7C253.6,29.9,254.5,28.6,255.4,27.5z M57.3,210.4l0.4,1.3 c1.4-0.5,2.8-0.9,4.3-1.2l-0.3-1.3C60.2,209.5,58.7,209.9,57.3,210.4z M75.3,210c1.5,0.2,2.9,0.5,4.4,0.9l0.3-1.3 c-1.5-0.4-3-0.7-4.5-0.9L75.3,210z M48.9,213.8l0.5,1.2l4.1-1.8L53,212L48.9,213.8z M24,224.7l0.5,1.2l4.1-1.8l-0.5-1.2L24,224.7z M40.6,217.5l0.5,1.2l4.1-1.8l-0.5-1.2L40.6,217.5z M215.4,147l1.6,4.2l1.3-0.5l-1.6-4.2L215.4,147z M32.3,221.1l0.5,1.2l4.1-1.8 l-0.5-1.2L32.3,221.1z M171.8,105.4l-0.2-1.3c-1.5,0.2-3,0.5-4.5,0.9l0.4,1.3C168.8,105.9,170.3,105.6,171.8,105.4z M413.9,95 c0.5,1.4,1.1,2.9,1.7,4.3l1.2-0.6c-0.6-1.3-1.2-2.7-1.7-4.1L413.9,95z M311.1,25.4c-1-1.1-2.1-2.2-3.3-3.2l-0.9,1 c1.1,1,2.2,2,3.1,3.1L311.1,25.4z M415.7,68.4l-1.3-0.5c-0.5,1.4-1,2.9-1.4,4.4l1.3,0.3C414.7,71.2,415.2,69.8,415.7,68.4z M316.3,32.9c-0.7-1.4-1.5-2.7-2.4-3.9l-1.1,0.8c0.8,1.2,1.6,2.5,2.3,3.8L316.3,32.9z M319.8,41.4l-1.5-4.1l-0.5,0.1l-0.8,0.4 l1.5,4.1L319.8,41.4z M419.8,60.5l-1.1-0.8c-0.9,1.3-1.6,2.6-2.3,4l1.2,0.6C418.2,63,418.9,61.8,419.8,60.5z M425.8,124l1.3-0.2 c-0.2-1.5-0.5-3-0.8-4.5l-1.3,0.3C425.3,121.1,425.6,122.6,425.8,124z M425.5,53.8l-0.9-1c-1.1,1-2.2,2.2-3.2,3.3l1,0.9 C423.4,55.9,424.5,54.8,425.5,53.8z M308.7,182.7l2,4l1.2-0.6l-2-4L308.7,182.7z M276,118.2l2,4l1.2-0.6l-2-4L276,118.2z M261.8,21.4l-0.8-1.1c-1.2,0.9-2.4,1.9-3.5,3l0.9,1C259.5,23.2,260.7,22.3,261.8,21.4z M284.2,134.3l2,4l1.2-0.6l-2-4L284.2,134.3z M269.5,17l-0.5-1.3c-1.4,0.6-2.8,1.3-4.1,2l0.7,1.2C266.8,18.2,268.2,17.6,269.5,17z M278.1,14.6l-0.2-1.3c-1.5,0.2-3,0.5-4.5,0.9 l0.4,1.3C275.1,15.2,276.6,14.8,278.1,14.6z M304.2,19.3c-1.3-0.9-2.6-1.6-4-2.3l-0.6,1.2c1.3,0.7,2.6,1.4,3.8,2.3L304.2,19.3z M283.2,14.3c1.2,0,2.5,0.1,3.7,0.2l0.1-1.3c-1.2-0.1-2.5-0.2-3.8-0.2c-0.3,0-0.6,0-0.8,0l0,1.4C282.7,14.3,283,14.3,283.2,14.3z M296,15.1c-1.4-0.5-2.9-1-4.4-1.3l-0.3,1.3c1.4,0.3,2.9,0.8,4.3,1.3L296,15.1z M15.7,228.3l0.5,1.2l4.1-1.8l-0.5-1.2L15.7,228.3z M174.3,208.8l-1.2,0.6l2,4l1.2-0.6L174.3,208.8z M172.2,204.7l-2-4l-1.2,0.6l2,4L172.2,204.7z M91.7,216.5c1.2,0.8,2.4,1.8,3.5,2.7 l0.9-1c-1.1-1-2.4-2-3.6-2.8L91.7,216.5z M175.2,255.4l1.1,0.8c0.9-1.3,1.7-2.6,2.4-3.9l-1.2-0.6C176.8,252.9,176,254.2,175.2,255.4 z M161.9,266.9l0.6,1.2c1.4-0.7,2.7-1.5,4-2.3l-0.8-1.1C164.5,265.5,163.2,266.3,161.9,266.9z M164,188.6l-2-4l-1.2,0.6l2,4 L164,188.6z M164.9,193.3l2,4l1.2-0.6l-2-4L164.9,193.3z M178.9,218.1l-0.6-1.2l-1.2,0.6l0.6,1.2c0.5,0.9,0.9,1.9,1.3,2.8l1.3-0.5 C179.9,220,179.4,219,178.9,218.1z M209.1,130l1.6,4.2l1.3-0.5l-1.6-4.2L209.1,130z M156.7,177.1l2,4l1.2-0.6l-2-4L156.7,177.1z M200.2,114.8c1.1,1,2,2.2,2.9,3.3l1.1-0.8c-0.9-1.2-2-2.4-3.1-3.4L200.2,114.8z M206.8,121.1l-1.2,0.7c0.7,1.1,1.3,2.3,1.8,3.5 l0.1,0.4l1.3-0.5l-0.2-0.4C208.1,123.6,207.5,122.3,206.8,121.1z M179.3,247.5l1.3,0.5c0.5-1.4,1-2.9,1.4-4.4l-1.3-0.3 C180.2,244.7,179.8,246.2,179.3,247.5z M212.3,138.5l1.6,4.2l1.3-0.5l-1.6-4.2L212.3,138.5z M181,234.9c0,1.4,0.3,2.7,0.2,4.1 l1.7,0.2c0.2-1.4,0.4-2.8,0.4-4.2v-0.4l-2.3,0V234.9z M185,106.2c1.4,0.4,2.8,0.8,4.2,1.4l0.5-1.3c-1.4-0.6-2.9-1.1-4.4-1.4 L185,106.2z M193.2,109.5c1.3,0.7,2.5,1.5,3.7,2.4l0.8-1.1c-1.2-0.9-2.5-1.8-3.9-2.5L193.2,109.5z M169.2,262l0.9,1 c1.2-1,2.3-2.1,3.3-3.2l-1-0.9C171.4,259.9,170.4,261,169.2,262z M153.6,269.9l0.3,1.3c1.5-0.3,3-0.8,4.4-1.3l-0.5-1.3 C156.4,269.2,155,269.6,153.6,269.9z M111.4,245.7l-1.3,0.5l0.6,1.5c0.3,0.9,0.7,1.8,1.1,2.7l1.2-0.6c-0.4-0.9-0.8-1.7-1.1-2.6 L111.4,245.7z M114,254.5c0.8,1.3,1.7,2.6,2.7,3.8l1.1-0.9c-0.9-1.1-1.8-2.4-2.6-3.6L114,254.5z M127.1,267.2c1.3,0.8,2.7,1.4,4.1,2 l0.5-1.3c-1.4-0.6-2.7-1.2-4-2L127.1,267.2z M107,237.7l1.6,4.2l1.3-0.5l-1.6-4.2L107,237.7z M135.6,270.7c1.5,0.4,3,0.7,4.5,1 l0.2-1.3c-1.5-0.2-2.9-0.5-4.3-0.9L135.6,270.7z M98.4,222.3c1,1.1,1.9,2.3,2.8,3.5l1.1-0.8c-0.9-1.2-1.9-2.4-2.9-3.6L98.4,222.3z M103.5,229.5c0.7,1.3,1.4,2.6,1.9,4l1.3-0.5c-0.6-1.4-1.3-2.8-2-4.1L103.5,229.5z M119.8,261.7c1.1,1.1,2.3,2.1,3.5,3l0.8-1.1 c-1.2-0.9-2.3-1.9-3.4-2.9L119.8,261.7z M148.5,161l2,4l1.2-0.6l-2-4L148.5,161z M154.8,111.3c-1.2,0.9-2.4,2-3.4,3.1l1,0.9 c1-1.1,2.1-2.1,3.3-3L154.8,111.3z M155.8,172.5l-2-4l-1.2,0.6l2,4L155.8,172.5z M145.7,270.8c-0.3,0-0.6,0-0.9,0l0,1.4 c0.3,0,0.5,0,0.8,0c1.3,0,2.5-0.1,3.8-0.2l-0.1-1.4C148,270.7,146.9,270.8,145.7,270.8z M141.8,144c0.2,1.5,0.6,3,1,4.5l1.3-0.4 c-0.4-1.4-0.7-2.9-0.9-4.3L141.8,144z M142.8,138.8c0-1.3,0.1-2.6,0.2-3.8l-1.3-0.2c-0.2,1.3-0.2,2.7-0.2,4l0,0.6l1.4,0L142.8,138.8 z M147.7,156.3l-2-4l-1.2,0.6l2,4L147.7,156.3z" fill="#ffffff"/></g></svg>