<?xml version="1.0" encoding="UTF-8" standalone="no"?><svg xmlns="http://www.w3.org/2000/svg" xmlns:xlink="http://www.w3.org/1999/xlink" fill="#000000" height="512" preserveAspectRatio="xMidYMid meet" version="1" viewBox="0.0 0.0 512.0 512.0" width="512" zoomAndPan="magnify">
 <g id="change1_1"><rect fill="#ffde59" height="512" rx="15%" width="512"/></g>
 <g id="change2_1"><path d="m125 173c0-4-2-9-5-11l-31-38v-6h98l75 166 67-166h93v6l-27 26c-2 1-3 4-3 7v190c0 3 1 6 3 8l27 25v6h-133v-6l27-26c3-3 3-4 3-8v-153l-76 192h-10l-88-192v129c-1 5 1 11 5 15l35 43v5h-100v-5l35-43c4-4 6-10 5-15z" fill="#ffffff"/></g>
</svg>