<?xml version="1.0" encoding="UTF-8" standalone="no"?><svg xmlns="http://www.w3.org/2000/svg" xmlns:xlink="http://www.w3.org/1999/xlink" fill="#000000" height="64" preserveAspectRatio="xMidYMid meet" version="1" viewBox="-0.0 -0.0 64.0 64.0" width="64" zoomAndPan="magnify"><defs><clipPath id="b"><path d="M15.903 131.998c0-65.17 52.83-118 118-118s118 52.83 118 118-52.83 118-118 118-118-52.83-118-118"/></clipPath><clipPath id="c"><path d="M0 265.9h266.987V0H0z"/></clipPath><clipPath id="d"><path d="M0 265.9h266.987V0H0z"/></clipPath><clipPath id="e"><path d="M0 265.9h266.987V0H0z"/></clipPath><linearGradient gradientUnits="userSpaceOnUse" id="a" spreadMethod="pad" x1="133.903" x2="133.903" xlink:actuate="onLoad" xlink:show="other" xlink:type="simple" y1="13.999" y2="249.999"><stop offset="0" stop-color="#ffde59"/><stop offset="1" stop-color="#ffde59"/></linearGradient></defs><g><path clip-path="url(#b)" d="M15.903 131.998c0-65.17 52.83-118 118-118s118 52.83 118 118-52.83 118-118 118-118-52.83-118-118" fill="url(#a)" transform="matrix(.27119 0 0 -.27119 -4.313 67.796)"/><g clip-path="url(#c)" id="change1_1" transform="matrix(.27119 0 0 -.27119 -4.313 67.796)"><path d="M95.778 123.374l14-38.75S111.528 81 113.403 81s29.75 29 29.75 29l31 59.875-77.875-36.5z" fill="#c8daea"/></g><g clip-path="url(#d)" id="change2_1" transform="matrix(.27119 0 0 -.27119 -4.313 67.796)"><path d="M114.34 113.436l-2.688-28.562s-1.125-8.75 7.625 0 17.125 15.5 17.125 15.5" fill="#a9c6d8"/></g><g clip-path="url(#e)" id="change3_1" transform="matrix(.27119 0 0 -.27119 -4.313 67.796)"><path d="M96.03 121.99l-28.795 9.383s-3.437 1.395-2.333 4.562c.228.653.687 1.208 2.062 2.167 6.382 4.447 118.104 44.604 118.104 44.604s3.155 1.062 5.02.356c.852-.323 1.396-.688 1.854-2.02.167-.485.263-1.516.25-2.542-.01-.74-.1-1.425-.166-2.5-.68-10.98-21.04-92.918-21.04-92.918s-1.218-4.795-5.583-4.958c-1.592-.06-3.524.263-5.834 2.25-8.565 7.368-38.172 27.265-44.713 31.64-.37.246-.474.567-.537.88-.092.46.4 1.034.4 1.034s51.552 45.825 52.924 50.633c.106.373-.293.557-.834.396-3.424-1.26-62.78-38.74-69.33-42.88-.383-.242-1.457-.086-1.457-.086" fill="#ffffff"/></g></g></svg>