<?xml version="1.0" encoding="UTF-8" standalone="no"?><svg xmlns="http://www.w3.org/2000/svg" xmlns:xlink="http://www.w3.org/1999/xlink" fill="#000000" height="276.2" preserveAspectRatio="xMidYMid meet" version="1" viewBox="-0.2 0.0 489.6 276.2" width="489.6" zoomAndPan="magnify"><g id="change1_1"><path d="M489.4,167.1c0,40.1-32.5,72.6-72.6,72.6c-1.4,0-2.8,0-4.3-0.1c-8-0.5-15.7-2.2-22.8-5.1 c-4.4,5.2-9.2,10-14.4,14.4c-20.2,17-46.3,27.3-74.8,27.3c-25,0-48.2-7.9-67.2-21.4c-5.6,1.9-11.4,3.3-17.3,4.3 c-6.4,1.1-12.9,1.6-19.6,1.6c-21,0-40.7-5.6-57.8-15.3c-7.4-4.2-14.2-9.2-20.5-14.9c-12.5,10.1-28.4,16.2-45.7,16.2 c-28.3,0-52.8-16.2-64.8-39.8c-5-9.9-7.8-21-7.8-32.8c0-40.1,32.5-72.6,72.6-72.6c0.3,0,0.6,0,0.9,0C80.8,44.2,129.6,0,188.8,0 c37.5,0,70.9,17.8,92.1,45.4c6.4-1.1,12.9-1.6,19.6-1.6c41,0,77,21.2,97.7,53.2c5.9-1.6,12.2-2.4,18.6-2.4 c38.6,0,70.2,30.1,72.5,68.2C489.3,164.2,489.4,165.6,489.4,167.1z" fill="#1b9df0"/></g></svg>