<?xml version="1.0" encoding="UTF-8" standalone="no"?><svg xmlns="http://www.w3.org/2000/svg" xmlns:xlink="http://www.w3.org/1999/xlink" fill="#000000" height="1134.4" preserveAspectRatio="xMidYMid meet" version="1" viewBox="-0.7 -8.3 1972.9 1134.4" width="1972.9" zoomAndPan="magnify"><g><g id="change1_1"><path d="M1658.3,987.89c-4.56-1.05-8.32,1.59-12.18,3.05c-15.25,5.75-30.83,10.43-46.61,14.33 c-5.14,1.27-8.76,2.99-9.14,8.71c-1.91-1.35-1.8-3.37-1.66-5.32c2.21-30.53-6.28-58.56-20.3-85.18 c-20.89-39.67-54.25-62.53-97.64-71.63c-7.34-1.54-14.78-1.17-22.14-0.63c-7.4,0.55-11.53,5.54-13.7,12.28 c-2.27,7.05,1.03,12.36,5.9,16.8c4.19,3.83,9.32,6.43,14.24,9.22c19.97,11.29,29.05,29.22,31.75,51.2c0.57,4.69-1.9,6.66-5.85,7.99 c-11.03,3.69-21.41,8.66-30.24,16.41c-18.09,15.86-28.27,35.53-28.95,59.86c-0.1,3.78,1.28,7.89-1.79,11.24 c-0.96-3.33-2.32-5.31-6.64-5.01c-26.28,1.82-52.62,2.56-78.97,2.25c-30.93-0.36-61.88-0.32-92.77-1.5 c-40.88-1.56-81.73-3.83-122.62-5.23c-28.94-0.99-57.88-1.66-86.82-2.52c-44.01-1.31-88.02-1.23-132.01-0.59 c-26.79,0.39-53.59,0.05-80.36,1.14c-39.32,1.59-78.55,4.61-117.71,8.61c-37.17,3.79-74.24,8.5-111.55,11.09 c-46.54,3.24-93.1,4.18-139.69,3.16c-30.65-0.67-61.32-2-91.86-5c-61.65-6.05-120.54-21.67-175.66-50.52 c-20.6-10.79-39.16-24.45-56.16-40.11c-29.58-27.24-56.3-56.93-76.93-91.79C28.12,822.83,14,782.68,6.43,740.09 c-4.81-27.06-7.13-54.36-6.24-81.82c1.06-32.6,3.86-65.09,7.29-97.52c3.15-29.81,5.78-59.69,9.62-89.41 c8.14-62.94,22.31-124.23,55.04-179.6c29.45-49.82,67.56-91.68,116.67-122.99c2.44-1.55,5.82-2.41,6.31-6.1 c3.47,1.21,3.69,4.64,4.72,7.33c6.66,17.45,15.15,34,28.15,47.45c23.89,24.73,52.88,40.15,87.38,44.2 c4.94,0.58,9.99,0.48,14.85-1.33c11.21-4.18,14.75-16.73,7.23-26.03c-4.37-5.4-10.67-8.23-16.42-11.66 c-19.57-11.68-29.01-29.27-31.3-51.45c-0.58-5.57,2.46-7.35,6.78-8.55c14.2-3.94,26.32-11.3,36.43-22.03 c7.55-8.01,13.57-16.98,17.59-27.26c0.85-2.17,1.16-4.77,3.92-5.63c17.29-2.16,34.55-4.74,52-5.31c3.29,4.96,0.83,10.33,0.21,15.13 c-2.32,17.98,1.24,35.2,5.89,52.17c6.02,21.99,15.16,42.71,30.17,60.24c19.23,22.45,43.31,37.39,71.89,45 c8.85,2.35,17.79,4.38,27.05,3.73c5.8-0.41,11.17-2,14.77-7.09c6.2-8.76,3.85-18.48-6.06-25.14c-8.28-5.57-17.1-10.22-24.43-17.33 c-11.91-11.55-15.87-26.1-17.86-41.71c-0.52-4.04,1.52-6,5.01-7.22c4.72-1.65,9.62-2.86,14.11-5.12 c23.08-11.6,38.2-29.72,44.77-54.81c0.7-2.68,0.62-5.74,3.5-7.38c29.5,3.92,58.97,8.05,88.5,11.71 c32.99,4.09,65.78,9.51,98.59,14.81c40.35,6.53,80.75,12.17,121.62,14.49c40.36,2.29,80.39-0.13,120.4-5.2 c53.81-6.82,106.26-20.16,159-32.18c46.16-10.51,91.99-22.47,138.51-31.39c31.59-6.06,63.45-10.25,95.54-12.84 c31.48-2.55,62.99-4.38,94.57-3.47c29.99,0.87,59.86,3.48,89.66,7.28c42.73,5.44,85.1,12.63,126.71,23.87 c44.53,12.03,87.53,27.86,126.42,53.22c28.75,18.75,52.51,42.6,72.82,70.38c16.65,22.77,32.63,45.75,43.02,72.09 c6.64,16.85,9.39,34.76,12.67,52.5c6.15,33.26,8.67,66.79,8.31,100.6c-0.79,74.11-10.84,146.82-31.91,217.98 c-12.11,40.89-23.16,82.19-42.37,120.49c-22.97,45.79-54.72,84.63-95.03,116.48c-7.64,6.03-16.23,10.98-22.65,18.54 c-2.72,0.92-3.16-1.6-4.23-2.95c-24.14-30.31-55.06-48.77-93.72-53.7c-4.33-0.55-8.7-0.46-13.04-0.15 c-7.6,0.54-13.02,4.97-15.33,12.18c-2.02,6.33,0.28,13.35,6.12,17.96c4.11,3.25,8.72,5.76,13.28,8.28 c19.79,10.91,29.32,28.35,32.3,50.07c0.69,5.02-0.78,8.22-6.06,9.81c-13.33,4.03-25.19,10.66-34.86,20.91 C1662.72,986.31,1661.17,988.42,1658.3,987.89z" fill="#1b9df0"/></g><g id="change2_1"><path d="M354.44,107.68c-6.23,17.92-16.28,33.08-31.88,44.27c-8.24,5.91-17.3,10.07-27.04,12.65 c-3.69,0.98-4.58,2.42-4.19,6.29c2.29,22.48,11.87,40.15,32.25,51.19c3.62,1.96,7.06,4.3,10.43,6.68 c7.94,5.62,10.84,12.86,8.5,20.71c-2.6,8.68-9.26,13.88-19.12,13.81c-26.73-0.21-50.32-9.56-72.44-24.21 c-28.22-18.68-44.7-45.49-55.82-76.43c-11.72-32.69-10.93-65.72-2.64-98.95c11.07-44.32,56.29-71.97,100.46-61.46 c44.65,10.62,72.47,54.9,62.66,99.72C355.19,103.86,354.83,105.77,354.44,107.68z" fill="#ffffff"/></g><g id="change2_2"><path d="M575.48,112.86c-4.43,22.93-15.2,41.97-34.31,55.92c-8.38,6.12-17.69,10.28-27.63,12.95 c-3.51,0.94-4.16,2.41-3.82,5.91c2.2,22.49,11.67,40.26,32.08,51.33c3.43,1.86,6.66,4.12,9.91,6.31 c8.36,5.64,11.56,13.02,9.22,21.02c-2.61,8.97-9.35,14.12-19.66,13.99c-26.26-0.34-49.7-9.21-71.29-23.86 c-41.21-27.95-58.54-69.01-64.93-116.38c-1.72-12.74,0.58-25.14,1.38-37.68c3.24-11.68,4.15-23.86,9.03-35.23 c17.97-41.79,68.97-61.76,110.48-42.9c33.49,15.21,52.51,47.44,49.64,84.06C575.47,109.81,575.51,111.34,575.48,112.86z" fill="#ffffff"/></g><g id="change2_3"><path d="M1658.3,987.89c11.73-12.75,25.65-21.98,42.54-26.43c4.53-1.19,2.93-4.66,2.63-7.49 c-2.57-24.72-16.12-41.58-37.8-52.61c-2.31-1.18-4.54-2.6-6.61-4.17c-7.01-5.31-9.62-12.55-7.38-19.95 c2.5-8.25,8.91-13.24,17.9-13.64c17.53-0.76,34.32,3.18,50.07,10.23c24.15,10.8,44.87,26.36,60.18,48.39 c16.14,25.62,27.41,53.14,29.16,83.59c1.52,26.55-0.91,53.2-13.61,76.93c-15.18,28.35-40.69,42.84-72.69,43.11 c-32.95,0.28-58.57-14.65-74.11-43.93C1631.01,1048.83,1635.67,1017.23,1658.3,987.89z" fill="#ffffff"/></g><g id="change2_4"><path d="M1419.99,1036.2c-0.9-15.43,0.98-30.36,7.89-44.43c10.87-22.11,28.12-36.83,51.52-44.2 c4.8-1.51,6.25-3.12,5.53-8.57c-2.99-22.65-13.95-39.44-34.21-50.15c-3.26-1.73-6.4-3.74-9.41-5.89 c-7.6-5.42-10.48-12.79-8.13-20.22c2.81-8.87,8.79-13.46,18.43-13.73c25.48-0.71,48.38,7.38,69.58,20.88 c43.23,27.53,62.29,69.18,69.19,118.1c1.24,8.77-0.12,17.32,0,25.97c-2.56,15.43-3.59,31.17-9.57,45.91 c-17.14,42.24-67.26,63-109.22,45C1441.3,1091.91,1424.75,1068.44,1419.99,1036.2z" fill="#ffffff"/></g></g></svg>