<?xml version="1.0" encoding="UTF-8"?><svg xmlns="http://www.w3.org/2000/svg" xmlns:xlink="http://www.w3.org/1999/xlink" height="32.0" preserveAspectRatio="xMidYMid meet" version="1.0" viewBox="0.0 0.0 32.0 32.0" width="32.0" zoomAndPan="magnify"><g><g id="change1_1"><circle cx="16" cy="16" fill="#FA9B19" r="16"/></g><g id="change2_1"><path d="M31.793,18.564L15.999,6.877l-5.4,8.959l2.683,3.047l-2.885-1.652l5.611,7.878l4.854,6.135 C26.531,29.438,30.827,24.559,31.793,18.564z" fill="#DC8C1E"/></g><g id="change3_2"><path d="M16,30.154c-7.804,0-14.154-6.35-14.154-14.154S8.196,1.846,16,1.846S30.154,8.196,30.154,16 S23.804,30.154,16,30.154z M16,3.692C9.213,3.692,3.692,9.214,3.692,16S9.213,28.308,16,28.308S28.308,22.786,28.308,16 S22.787,3.692,16,3.692z" fill="#FADC14"/></g><g fill="#FADC14" id="change3_1"><path d="M15.999 20.541L10.397 17.231 15.999 25.123 21.603 17.231z" fill="inherit"/><path d="M15.999 19.027L21.397 15.838 15.999 6.877 10.599 15.836z" fill="inherit"/></g></g></svg>